<?xml version="1.0" encoding="UTF-8"?>
<svg version="1.1" xmlns="http://www.w3.org/2000/svg" width="969" height="969">
<path d="M0,0 L12,1 L21,3 L33,9 L48,15 L64,23 L82,33 L91,39 L98,43 L109,51 L125,63 L129,67 L127,69 L132,72 L132,74 L134,74 L134,77 L138,77 L138,79 L136,79 L136,82 L134,82 L134,85 L136,85 L136,83 L140,84 L139,89 L137,91 L136,99 L131,100 L131,105 L126,103 L126,109 L123,113 L114,116 L107,121 L106,124 L90,126 L90,127 L82,128 L25,129 L-26,129 L-54,130 L-56,129 L-57,131 L-58,130 L-101,130 L-133,129 L-158,129 L-209,130 L-226,129 L-226,124 L-232,125 L-234,128 L-235,123 L-239,122 L-239,120 L-244,118 L-245,116 L-248,115 L-249,111 L-247,110 L-254,102 L-256,101 L-256,99 L-258,99 L-260,92 L-262,92 L-262,90 L-265,90 L-268,87 L-273,85 L-273,83 L-275,83 L-277,79 L-281,78 L-281,75 L-284,75 L-288,69 L-290,67 L-290,64 L-295,62 L-299,55 L-303,54 L-304,50 L-308,49 L-314,39 L-317,34 L-316,32 L-314,33 L-314,31 L-310,30 L-310,36 L-307,36 L-307,38 L-304,39 L-300,45 L-300,47 L-296,47 L-292,51 L-290,50 L-289,52 L-285,51 L-286,49 L-284,44 L-277,44 L-272,46 L-267,48 L-264,45 L-257,45 L-253,41 L-247,43 L-243,48 L-231,47 L-229,45 L-222,46 L-218,47 L-202,47 L-201,46 L-193,46 L-193,48 L-191,47 L-178,47 L-176,45 L-168,44 L-166,45 L-166,47 L-155,46 L-154,45 L-128,44 L-119,45 L-119,38 L-115,37 L-112,40 L-110,41 L-110,35 L-114,34 L-110,31 L-99,33 L-99,35 L-92,37 L-89,36 L-87,37 L-87,35 L-81,33 L-78,33 L-76,40 L-73,40 L-71,36 L-57,37 L-58,41 L-62,43 L-67,43 L-68,50 L-72,52 L-65,54 L-63,48 L-60,45 L-56,45 L-54,49 L-49,47 L-43,47 L-37,48 L-27,46 L-24,41 L-21,40 L-15,41 L-14,36 L-13,35 L-5,35 L-4,32 L1,30 L2,19 L7,12 L14,11 L13,9 L3,5 L2,2 Z " fill="#CF0700" transform="translate(506,186)"/>
<path d="M0,0 L5,0 L5,2 L8,3 L8,7 L15,8 L23,7 L24,11 L24,13 L29,15 L29,8 L33,8 L33,11 L37,12 L47,12 L59,10 L61,14 L73,12 L76,11 L91,13 L92,14 L96,13 L108,13 L120,16 L141,18 L148,18 L153,16 L160,16 L160,18 L168,18 L168,16 L175,16 L181,14 L222,11 L259,12 L259,10 L291,10 L311,11 L346,12 L349,14 L358,16 L362,18 L359,19 L360,23 L370,26 L371,29 L364,30 L362,34 L360,37 L359,46 L355,50 L352,53 L344,54 L342,59 L334,59 L330,65 L320,67 L308,66 L302,68 L301,63 L296,65 L292,72 L285,71 L285,68 L289,68 L290,61 L299,59 L300,55 L295,56 L286,55 L282,59 L279,56 L278,51 L273,53 L270,53 L270,55 L264,56 L264,54 L258,53 L249,50 L244,52 L247,53 L248,57 L247,59 L242,57 L242,55 L239,56 L238,63 L223,63 L203,64 L202,65 L191,65 L191,63 L181,64 L179,66 L164,66 L164,64 L161,65 L156,65 L155,66 L135,66 L135,64 L128,64 L126,66 L113,67 L110,62 L104,60 L100,64 L93,64 L90,67 L85,65 L79,63 L73,63 L72,67 L72,70 L70,74 L70,70 L68,70 L67,72 L65,70 L61,67 L61,65 L57,65 L52,57 L50,56 L50,54 L47,54 L47,48 L43,49 L43,51 L36,50 L28,41 L25,39 L25,35 L22,34 L20,29 L16,28 L15,23 L10,23 L6,17 L1,12 L-2,7 L-5,3 L-4,1 Z " fill="#DD1300" transform="translate(149,168)"/>
<path d="M0,0 L2,0 L3,5 L5,6 L5,9 L8,8 L6,13 L2,20 L-1,21 L-4,20 L-5,24 L-10,23 L-10,25 L-13,24 L-13,21 L-15,21 L-15,25 L-13,25 L-14,30 L-23,36 L-23,33 L-26,33 L-27,35 L-30,35 L-31,33 L-32,34 L-36,37 L-32,39 L-41,42 L-51,46 L-50,51 L-52,51 L-53,55 L-56,58 L-60,59 L-62,58 L-63,66 L-65,66 L-65,68 L-67,68 L-67,70 L-73,73 L-74,75 L-84,78 L-84,83 L-89,85 L-91,87 L-94,87 L-94,80 L-98,82 L-97,84 L-99,87 L-106,89 L-109,95 L-112,101 L-110,101 L-110,103 L-114,105 L-115,109 L-119,110 L-119,114 L-129,115 L-134,120 L-133,123 L-136,123 L-135,126 L-131,127 L-131,132 L-134,133 L-136,133 L-138,135 L-138,144 L-141,145 L-141,151 L-144,151 L-144,147 L-152,148 L-152,150 L-150,150 L-150,152 L-146,153 L-147,156 L-145,158 L-148,159 L-149,161 L-149,158 L-157,159 L-162,158 L-163,162 L-167,162 L-167,154 L-174,156 L-175,152 L-178,152 L-178,156 L-176,157 L-177,164 L-178,165 L-172,167 L-166,168 L-163,171 L-164,167 L-162,167 L-161,169 L-160,167 L-157,166 L-157,163 L-151,163 L-150,166 L-153,169 L-157,169 L-159,174 L-156,175 L-163,177 L-165,180 L-167,180 L-168,184 L-176,187 L-178,192 L-181,193 L-181,195 L-186,195 L-186,197 L-191,198 L-191,201 L-198,202 L-198,204 L-205,206 L-206,209 L-213,210 L-215,212 L-220,214 L-224,216 L-230,216 L-230,218 L-246,218 L-248,214 L-252,213 L-252,193 L-249,181 L-245,170 L-238,156 L-229,143 L-218,131 L-211,123 L-202,117 L-195,111 L-193,107 L-189,105 L-189,107 L-185,106 L-184,103 L-181,103 L-181,101 L-174,97 L-164,90 L-157,86 L-140,74 L-124,64 L-113,56 L-111,56 L-111,59 L-108,59 L-108,57 L-104,58 L-104,55 L-94,54 L-90,55 L-90,53 L-93,51 L-93,49 L-85,49 L-86,42 L-83,42 L-84,35 L-82,33 L-81,29 L-79,28 L-78,25 L-75,25 L-75,33 L-73,33 L-73,30 L-66,29 L-65,27 L-63,27 L-63,29 L-54,30 L-54,21 L-52,20 L-51,28 L-43,23 L-42,19 L-37,17 L-33,18 L-33,17 L-24,16 L-18,17 L-17,10 L-19,10 L-18,7 L-13,9 L-12,13 L-10,14 L-9,10 L-5,9 L-5,6 L-1,4 Z " fill="#7F0041" transform="translate(773,494)"/>
<path d="M0,0 L4,0 L5,8 L7,8 L7,20 L9,20 L8,25 L7,27 L11,29 L11,31 L13,31 L13,33 L8,35 L7,46 L9,47 L7,47 L7,55 L9,55 L9,59 L7,59 L7,61 L5,61 L5,72 L2,72 L2,75 L-2,78 L-5,85 L-10,87 L-13,87 L-13,90 L-15,91 L-17,96 L-21,100 L-23,100 L-25,104 L-25,102 L-27,103 L-28,106 L-26,106 L-26,108 L-32,109 L-32,111 L-39,112 L-43,116 L-49,117 L-52,123 L-53,124 L-68,126 L-68,129 L-72,128 L-73,132 L-77,133 L-79,130 L-87,129 L-87,132 L-99,132 L-100,130 L-111,128 L-114,125 L-114,118 L-116,118 L-117,123 L-117,128 L-121,127 L-123,124 L-123,120 L-126,120 L-126,111 L-121,94 L-112,79 L-103,68 L-92,57 L-79,47 L-64,37 L-44,25 L-27,15 L-21,12 L-22,15 L-20,16 L-20,13 L-11,10 L-9,6 Z " fill="#C2000C" transform="translate(558,501)"/>
<path d="M0,0 L8,0 L12,5 L17,6 L18,8 L21,9 L23,13 L33,14 L36,17 L45,20 L44,24 L57,25 L63,28 L72,31 L78,32 L78,34 L86,35 L86,37 L95,39 L105,40 L111,43 L124,47 L136,52 L146,55 L143,56 L143,58 L150,59 L162,64 L178,69 L178,71 L184,71 L184,73 L192,74 L213,82 L218,83 L218,85 L223,86 L230,88 L237,91 L237,93 L246,93 L246,95 L250,95 L250,97 L256,97 L256,100 L260,100 L260,102 L255,102 L255,100 L248,100 L243,99 L239,99 L239,97 L242,96 L235,95 L231,93 L229,93 L230,97 L227,97 L227,100 L244,101 L244,99 L246,100 L246,102 L249,104 L240,103 L240,105 L248,106 L248,107 L100,107 L96,108 L89,106 L92,104 L85,102 L78,94 L71,87 L62,76 L52,66 L45,58 L45,55 L41,53 L37,48 L32,43 L28,41 L26,38 L26,36 L18,27 L18,24 L20,24 L21,19 L15,19 L15,21 L11,19 L11,16 L7,17 L1,9 L0,5 L-1,2 Z " fill="#9C0048" transform="translate(541,766)"/>
<path d="M0,0 L14,0 L21,1 L21,3 L28,3 L38,6 L46,10 L59,20 L69,29 L79,42 L83,48 L86,55 L88,59 L89,73 L89,85 L93,85 L93,88 L95,88 L95,99 L93,119 L92,132 L90,132 L90,139 L84,156 L77,168 L75,173 L72,173 L68,174 L68,180 L63,185 L59,185 L59,183 L57,183 L57,177 L56,179 L54,179 L54,174 L56,174 L55,169 L55,162 L53,160 L50,144 L50,141 L48,144 L45,139 L40,132 L41,127 L41,119 L39,125 L37,125 L37,120 L35,120 L35,114 L34,111 L35,109 L30,109 L28,97 L25,96 L25,92 L27,92 L28,88 L28,87 L27,84 L25,84 L25,78 L17,76 L17,82 L15,82 L15,86 L18,87 L19,91 L17,94 L16,93 L16,88 L11,89 L12,77 L13,76 L15,66 L16,63 L17,52 L17,30 L19,33 L20,52 L21,52 L21,26 L18,26 L16,29 L12,13 L11,9 L9,9 L8,12 L7,9 L3,5 L0,2 Z " fill="#4C012B" transform="translate(619,324)"/>
<path d="M0,0 L130,0 L130,2 L139,2 L140,3 L150,4 L154,6 L180,7 L192,8 L192,6 L200,5 L266,6 L284,7 L286,6 L310,6 L342,7 L347,8 L364,9 L373,11 L389,12 L391,16 L415,18 L426,21 L427,22 L457,25 L458,29 L467,31 L467,33 L476,34 L487,41 L495,44 L496,48 L500,49 L511,56 L511,58 L520,61 L524,63 L524,68 L528,70 L531,73 L533,76 L537,77 L537,79 L540,79 L543,82 L545,86 L550,87 L552,91 L552,95 L560,96 L560,102 L562,102 L564,108 L567,108 L570,120 L571,126 L573,126 L573,128 L585,127 L588,130 L586,130 L588,133 L588,139 L592,139 L597,149 L589,149 L585,147 L584,142 L582,142 L581,138 L573,138 L573,134 L565,135 L564,133 L560,132 L559,129 L559,131 L555,132 L557,139 L559,144 L554,139 L543,126 L536,118 L517,99 L508,92 L493,81 L485,75 L478,70 L469,65 L455,57 L436,47 L415,38 L405,33 L399,31 L398,28 L390,27 L390,25 L384,25 L383,24 L364,23 L360,21 L361,18 L349,18 L343,17 L343,15 L335,15 L335,13 L328,12 L321,12 L321,14 L319,15 L306,17 L252,17 L244,16 L203,15 L186,14 L186,13 L175,13 L159,14 L154,13 L124,12 L111,12 L111,10 L105,11 L89,11 L88,8 L65,8 L64,9 L51,9 L46,4 L35,3 L35,5 L27,5 L17,6 L11,5 L11,3 L2,3 Z " fill="#DF3F29" transform="translate(122,157)"/>
<path d="M0,0 L8,1 L9,5 L8,8 L11,10 L11,12 L13,12 L15,15 L15,21 L17,20 L17,14 L20,14 L23,15 L23,17 L26,17 L26,19 L28,19 L32,29 L36,34 L38,36 L36,36 L36,39 L38,40 L36,40 L41,46 L41,48 L43,48 L48,61 L48,63 L45,62 L43,59 L41,60 L40,63 L37,61 L35,54 L34,50 L36,50 L34,47 L30,46 L30,42 L34,42 L32,36 L26,35 L26,41 L23,48 L28,58 L31,61 L32,64 L34,66 L34,69 L33,73 L32,80 L30,80 L29,86 L21,91 L19,91 L19,93 L10,100 L5,105 L3,107 L4,109 L-3,114 L-8,120 L-13,122 L-13,124 L-16,125 L-18,128 L-21,128 L-21,132 L-24,135 L-27,135 L-27,142 L-37,157 L-41,163 L-44,171 L-45,167 L-45,162 L-49,162 L-49,159 L-47,159 L-52,154 L-53,162 L-57,164 L-61,165 L-67,169 L-68,171 L-66,171 L-66,176 L-78,178 L-83,182 L-86,181 L-86,179 L-88,179 L-89,182 L-93,179 L-93,177 L-103,178 L-107,174 L-110,173 L-112,165 L-126,163 L-128,162 L-127,159 L-124,158 L-126,154 L-126,151 L-121,151 L-121,154 L-111,155 L-111,153 L-115,154 L-117,152 L-112,150 L-121,148 L-122,141 L-124,141 L-124,147 L-125,149 L-132,152 L-136,144 L-136,150 L-138,147 L-139,142 L-139,128 L-135,127 L-135,132 L-133,135 L-130,136 L-131,129 L-129,125 L-127,126 L-126,133 L-122,135 L-113,137 L-112,140 L-104,139 L-100,140 L-100,137 L-92,137 L-90,140 L-86,140 L-85,136 L-81,137 L-81,134 L-73,132 L-66,131 L-62,124 L-56,124 L-55,121 L-50,119 L-45,119 L-45,117 L-39,116 L-39,114 L-41,114 L-40,110 L-37,110 L-36,108 L-34,108 L-32,104 L-30,103 L-28,98 L-26,98 L-26,95 L-18,92 L-15,85 L-11,83 L-11,80 L-8,80 L-9,72 L-8,69 L-6,69 L-6,67 L-4,67 L-4,63 L-6,63 L-6,45 L-2,41 L0,41 L0,39 L-2,39 L-6,35 L-4,28 L-6,28 L-7,20 L-6,16 L-8,16 L-9,14 L-9,8 L-11,7 L-11,4 L-3,2 L-2,3 Z " fill="#BB001A" transform="translate(571,493)"/>
<path d="M0,0 L1,0 L1,6 L-1,9 L-2,14 L1,15 L1,17 L-1,17 L0,26 L0,37 L1,38 L1,56 L0,61 L1,66 L0,67 L0,75 L3,78 L5,79 L5,88 L12,98 L14,101 L16,116 L16,120 L25,122 L32,132 L35,137 L35,140 L40,142 L40,148 L42,148 L42,150 L44,150 L44,153 L46,153 L46,155 L50,155 L51,153 L52,154 L59,155 L61,157 L61,163 L63,163 L65,169 L70,171 L70,174 L72,174 L72,182 L69,185 L58,183 L51,181 L51,178 L42,177 L33,173 L22,170 L15,167 L2,163 L-6,162 L-21,157 L-33,152 L-38,150 L-45,147 L-51,145 L-63,140 L-67,138 L-67,136 L-55,135 L-55,133 L-53,133 L-54,125 L-50,121 L-50,101 L-52,100 L-49,96 L-47,89 L-46,85 L-40,84 L-38,77 L-34,73 L-33,65 L-28,60 L-26,54 L-24,52 L-21,43 L-17,32 L-13,30 L-12,23 L-7,21 L-8,17 L-6,17 L-7,12 L-4,6 L-1,5 Z " fill="#DD0A0D" transform="translate(649,644)"/>
<path d="M0,0 L3,0 L10,8 L29,27 L36,35 L47,46 L54,54 L55,57 L58,58 L55,59 L74,78 L74,81 L75,79 L79,80 L93,95 L101,104 L105,110 L106,113 L106,139 L105,139 L105,127 L103,127 L102,122 L102,111 L98,111 L98,116 L94,117 L94,113 L92,113 L92,110 L89,110 L89,115 L86,116 L84,115 L84,113 L79,115 L75,119 L69,122 L65,123 L64,128 L55,124 L54,120 L48,119 L50,122 L50,125 L54,125 L58,130 L60,131 L62,136 L60,138 L55,133 L31,109 L24,101 L16,93 L11,88 L5,81 L0,76 L-5,71 L-9,70 L-9,67 L-19,55 L-22,50 L-24,41 L-24,32 L-19,22 L-8,10 Z " fill="#B5001F" transform="translate(256,561)"/>
<path d="M0,0 L2,4 L4,14 L5,19 L8,19 L8,15 L13,16 L13,22 L16,23 L16,27 L14,28 L13,32 L20,32 L20,36 L17,36 L20,50 L20,57 L28,58 L30,70 L34,71 L35,73 L38,74 L38,80 L35,80 L39,86 L43,90 L46,96 L48,102 L52,102 L52,104 L54,104 L56,108 L58,117 L60,117 L60,119 L65,119 L65,121 L67,121 L67,123 L69,123 L71,131 L73,131 L73,134 L77,136 L82,142 L82,147 L84,147 L84,149 L86,149 L87,153 L91,153 L91,156 L96,158 L99,166 L99,168 L103,168 L103,173 L108,173 L111,175 L111,177 L114,178 L115,180 L118,181 L120,185 L123,187 L124,193 L126,193 L126,196 L131,198 L132,203 L130,205 L125,204 L116,201 L107,199 L90,193 L80,189 L70,186 L68,182 L71,181 L71,173 L69,173 L68,170 L64,168 L62,162 L60,162 L58,155 L51,154 L49,154 L45,154 L45,152 L43,152 L43,149 L41,149 L41,147 L39,147 L39,141 L34,139 L28,128 L24,123 L24,121 L17,120 L15,119 L12,100 L4,88 L3,83 L2,80 L4,80 L4,78 L-1,76 L-2,74 L-2,66 L-1,63 L-2,58 L-1,55 L-1,37 L-2,36 L-2,16 L0,16 L-3,13 L-2,6 Z " fill="#DC271E" transform="translate(650,645)"/>
<path d="M0,0 L5,1 L8,7 L13,10 L16,15 L19,19 L19,21 L22,21 L22,24 L27,25 L28,29 L30,29 L31,31 L38,34 L38,36 L41,36 L41,38 L43,38 L45,45 L47,45 L47,47 L51,49 L57,57 L55,58 L55,61 L59,62 L59,64 L64,66 L65,68 L68,69 L69,73 L71,70 L77,70 L77,75 L102,75 L145,74 L170,74 L210,75 L245,75 L249,75 L277,74 L328,74 L385,73 L392,72 L392,71 L399,70 L409,70 L410,66 L419,60 L427,57 L429,49 L433,50 L434,46 L439,45 L439,37 L442,33 L442,30 L439,29 L439,31 L437,31 L437,28 L439,28 L439,25 L441,25 L441,23 L437,23 L437,20 L435,20 L435,18 L430,16 L430,13 L434,14 L442,21 L462,41 L470,51 L479,63 L489,79 L495,90 L503,106 L509,124 L513,140 L516,154 L516,161 L514,160 L509,144 L505,136 L502,129 L497,121 L494,116 L482,103 L475,97 L473,96 L473,94 L469,93 L462,92 L452,86 L446,84 L434,83 L391,82 L391,80 L439,80 L439,78 L76,78 L68,76 L68,74 L63,74 L62,69 L57,68 L52,61 L52,59 L48,60 L47,57 L45,57 L41,51 L37,50 L26,37 L17,26 L7,15 L2,7 L0,3 Z " fill="#BB0014" transform="translate(203,240)"/>
<path d="M0,0 L2,1 L3,4 L10,5 L12,7 L13,11 L14,16 L19,18 L28,22 L29,27 L35,27 L40,31 L50,34 L53,33 L55,32 L56,29 L63,28 L64,23 L69,22 L72,23 L75,19 L77,19 L77,17 L82,14 L85,17 L91,19 L101,29 L108,37 L122,52 L125,56 L126,60 L126,102 L124,102 L124,99 L122,99 L121,95 L119,95 L119,97 L113,98 L110,99 L93,99 L89,101 L85,101 L78,93 L69,83 L68,81 L65,80 L59,72 L59,70 L57,70 L57,68 L53,66 L46,58 L41,53 L26,38 L23,38 L11,25 L3,17 L5,15 L9,19 L11,16 L7,15 L10,13 L8,8 L8,13 L4,12 L4,8 L0,6 Z " fill="#C10010" transform="translate(239,457)"/>
<path d="M0,0 L13,0 L13,2 L22,2 L24,3 L36,4 L37,6 L52,7 L57,6 L57,8 L76,8 L76,10 L84,10 L102,13 L102,15 L113,15 L125,18 L128,20 L138,21 L141,23 L141,25 L147,26 L156,29 L156,31 L166,33 L169,34 L169,36 L174,37 L181,38 L185,42 L186,47 L188,47 L188,49 L192,50 L196,51 L196,54 L202,54 L203,57 L206,57 L206,59 L209,59 L213,64 L214,67 L217,70 L217,72 L223,74 L232,82 L237,85 L237,90 L239,90 L240,94 L248,94 L252,96 L252,98 L256,99 L260,105 L260,109 L263,109 L263,111 L265,111 L265,113 L270,114 L271,117 L274,117 L273,121 L277,126 L277,128 L279,128 L284,133 L284,135 L286,135 L286,137 L290,137 L295,145 L302,148 L305,150 L308,155 L313,160 L316,162 L316,168 L319,169 L319,171 L321,171 L321,174 L325,175 L325,177 L329,175 L330,176 L330,184 L333,184 L334,187 L340,188 L342,192 L343,199 L344,203 L340,202 L340,199 L337,199 L336,203 L330,194 L326,187 L316,184 L316,182 L312,181 L308,179 L305,170 L294,168 L290,163 L287,161 L287,159 L276,158 L274,150 L269,148 L266,146 L261,145 L258,140 L258,137 L254,137 L252,128 L253,127 L246,126 L241,127 L239,126 L239,124 L237,124 L235,118 L235,113 L233,112 L233,106 L230,106 L228,100 L226,100 L226,94 L220,94 L218,93 L216,85 L214,85 L213,87 L213,85 L209,83 L209,80 L206,79 L206,77 L203,77 L203,75 L198,74 L196,69 L192,67 L190,66 L190,61 L186,60 L177,56 L177,54 L173,52 L162,46 L160,42 L153,40 L142,33 L136,33 L133,31 L133,29 L124,27 L123,23 L106,22 L93,21 L84,18 L72,16 L57,15 L55,13 L55,10 L39,10 L30,8 L13,7 L8,6 L-24,5 L-48,5 L-51,6 L-68,5 L-68,3 L-49,2 L-47,1 L-4,1 Z " fill="#DB4C38" transform="translate(456,159)"/>
<path d="M0,0 L2,3 L1,5 L6,6 L6,8 L11,7 L12,5 L12,7 L14,7 L15,10 L22,10 L23,15 L25,15 L26,20 L38,22 L40,23 L42,28 L44,29 L44,31 L49,33 L51,42 L61,44 L63,42 L65,45 L68,46 L68,48 L71,48 L71,46 L76,48 L80,50 L83,59 L88,60 L96,63 L101,65 L105,70 L109,82 L109,84 L114,84 L116,80 L118,81 L118,90 L120,91 L120,93 L123,93 L124,95 L124,144 L122,144 L121,126 L119,124 L118,117 L114,115 L114,113 L112,113 L107,108 L103,106 L102,107 L95,107 L95,104 L104,103 L105,101 L95,101 L91,97 L91,94 L85,94 L81,92 L68,92 L61,93 L57,93 L53,97 L48,98 L45,97 L43,99 L41,111 L41,126 L40,124 L37,123 L36,116 L37,116 L36,103 L34,96 L34,87 L31,76 L31,65 L27,64 L26,62 L26,55 L28,48 L24,46 L24,44 L27,44 L27,42 L18,42 L16,36 L13,35 L13,29 L14,28 L14,23 L19,24 L19,22 L12,21 L12,14 L7,12 L5,13 L3,12 L3,14 L5,14 L4,18 L0,17 L-3,12 L-5,5 L0,4 L-1,1 Z " fill="#DA2C23" transform="translate(681,284)"/>
<path d="M0,0 L3,0 L3,6 L-1,7 L-2,11 L-3,18 L-4,22 L-9,24 L-9,31 L-14,35 L-19,48 L-21,54 L-23,56 L-25,62 L-28,66 L-30,66 L-30,74 L-35,79 L-37,85 L-43,86 L-42,90 L-44,91 L-45,98 L-48,101 L-47,102 L-46,122 L-49,126 L-51,126 L-50,134 L-52,134 L-52,136 L-54,137 L-65,137 L-67,136 L-67,134 L-71,134 L-71,131 L-78,129 L-83,125 L-89,123 L-98,117 L-101,114 L-105,110 L-109,111 L-110,108 L-112,108 L-113,100 L-115,100 L-117,94 L-117,88 L-111,89 L-111,91 L-103,89 L-99,87 L-89,82 L-79,77 L-75,74 L-69,72 L-68,68 L-65,67 L-64,65 L-58,63 L-56,57 L-53,54 L-51,54 L-50,50 L-47,50 L-47,48 L-42,44 L-37,42 L-36,40 L-34,40 L-34,35 L-30,34 L-27,29 L-23,27 L-20,19 L-17,18 L-17,20 L-15,20 L-14,15 L-11,14 L-9,7 Z " fill="#C60015" transform="translate(646,643)"/>
<path d="M0,0 L166,0 L172,1 L202,3 L249,3 L249,5 L263,7 L268,9 L288,11 L292,12 L292,14 L302,14 L304,15 L313,16 L324,20 L331,22 L340,25 L346,30 L354,32 L354,35 L363,38 L367,43 L377,48 L377,50 L382,51 L386,54 L384,54 L385,56 L390,59 L393,61 L393,63 L396,63 L397,65 L405,69 L407,73 L412,78 L414,80 L422,83 L423,87 L425,87 L425,89 L428,90 L429,95 L431,95 L431,97 L437,98 L439,101 L439,104 L441,104 L446,109 L448,111 L452,117 L452,119 L456,119 L457,123 L459,123 L460,128 L462,126 L466,126 L469,138 L476,141 L480,145 L484,146 L484,150 L488,152 L489,153 L489,160 L491,160 L493,172 L500,192 L501,197 L501,206 L500,206 L498,197 L496,194 L495,187 L492,188 L488,182 L488,177 L486,177 L486,175 L484,175 L484,170 L482,169 L482,167 L478,166 L474,162 L474,160 L470,158 L467,149 L463,147 L463,145 L456,144 L455,139 L454,134 L452,134 L450,129 L446,128 L442,123 L442,121 L440,121 L437,116 L435,115 L432,109 L427,104 L427,101 L416,96 L416,94 L414,94 L414,92 L412,92 L411,90 L408,89 L403,84 L401,83 L401,81 L397,81 L395,77 L392,76 L392,74 L390,74 L390,72 L385,72 L386,68 L382,66 L380,63 L372,60 L369,57 L363,52 L362,47 L352,47 L347,45 L345,38 L336,35 L315,29 L315,27 L304,25 L304,23 L294,21 L291,19 L279,16 L277,15 L248,14 L231,11 L177,8 L175,7 L166,6 L166,4 L156,5 L149,6 L106,6 L104,7 L74,7 L74,5 L50,5 L48,4 L1,3 L1,5 L-42,5 L-51,4 L-52,1 Z " fill="#D16A58" transform="translate(303,155)"/>
<path d="M0,0 L1,0 L1,5 L-1,5 L1,15 L3,15 L3,12 L8,11 L8,13 L11,12 L11,16 L14,15 L19,17 L28,26 L35,34 L47,47 L57,57 L61,62 L68,68 L70,72 L78,79 L87,89 L88,91 L83,91 L80,88 L76,90 L76,92 L74,92 L72,96 L70,97 L64,96 L62,101 L55,103 L52,108 L43,106 L36,103 L34,101 L28,100 L27,95 L18,92 L13,89 L10,83 L9,79 L1,78 L0,74 L0,79 L5,81 L3,82 L4,85 L7,86 L6,80 L9,83 L10,88 L7,88 L10,89 L8,93 L1,85 L-2,80 L-3,75 L-3,11 L-2,2 Z " fill="#CC0401" transform="translate(240,384)"/>
<path d="M0,0 L4,2 L1,6 L-1,13 L-6,15 L-8,20 L-13,21 L-13,26 L-15,26 L-16,29 L-23,31 L-24,34 L-26,34 L-26,36 L-29,36 L-30,40 L-35,44 L-37,49 L-40,51 L-43,51 L-44,54 L-47,54 L-48,58 L-57,63 L-64,67 L-71,71 L-78,74 L-82,76 L-90,77 L-90,75 L-95,75 L-94,86 L-92,86 L-91,94 L-89,94 L-88,96 L-85,97 L-78,105 L-75,108 L-68,112 L-54,119 L-47,123 L-39,126 L-27,131 L-19,134 L-14,136 L-7,139 L9,145 L18,148 L18,149 L11,149 L2,146 L2,144 L-6,143 L-6,141 L-15,140 L-27,135 L-38,134 L-40,133 L-39,129 L-48,127 L-51,124 L-61,123 L-63,121 L-63,118 L-67,117 L-67,115 L-72,115 L-76,111 L-76,110 L-84,109 L-85,112 L-91,107 L-91,101 L-93,101 L-96,101 L-96,97 L-101,96 L-108,87 L-112,86 L-121,76 L-128,68 L-131,64 L-131,61 L-140,52 L-145,46 L-150,41 L-150,39 L-154,40 L-161,32 L-169,23 L-178,12 L-179,8 L-177,8 L-173,12 L-170,11 L-168,13 L-164,14 L-164,18 L-162,18 L-159,23 L-156,24 L-154,27 L-144,28 L-144,35 L-142,35 L-142,33 L-137,33 L-135,44 L-132,48 L-132,50 L-129,50 L-127,55 L-125,56 L-125,58 L-122,58 L-120,61 L-113,64 L-113,58 L-109,56 L-111,49 L-112,43 L-111,42 L-110,34 L-107,34 L-106,24 L-104,24 L-104,19 L-101,12 L-99,7 L-97,7 L-100,18 L-103,30 L-104,50 L-100,51 L-98,54 L-82,55 L-82,53 L-73,51 L-71,49 L-66,47 L-61,45 L-58,46 L-57,42 L-51,40 L-50,38 L-43,38 L-43,35 L-38,34 L-38,32 L-33,32 L-33,30 L-30,28 L-28,23 L-20,20 L-19,17 L-14,12 L-11,11 L-9,6 L-4,4 Z " fill="#A90033" transform="translate(625,657)"/>
<path d="M0,0 L5,1 L10,0 L23,0 L29,2 L33,3 L35,9 L45,9 L47,10 L46,13 L37,13 L37,16 L44,15 L48,15 L50,15 L51,18 L54,20 L54,22 L56,22 L57,24 L61,26 L62,33 L64,35 L64,52 L62,48 L61,50 L56,50 L55,49 L44,49 L40,51 L32,50 L32,52 L18,50 L9,52 L9,54 L-1,57 L-5,62 L-10,62 L-14,63 L-15,58 L-18,59 L-18,20 L-16,8 L-12,5 L-7,6 L-3,4 Z " fill="#D80912" transform="translate(739,375)"/>
<path d="M0,0 L42,2 L59,5 L88,6 L96,9 L104,11 L113,14 L115,15 L115,17 L124,18 L126,19 L126,21 L134,22 L151,27 L156,30 L158,34 L158,37 L173,39 L176,45 L183,50 L183,52 L188,53 L193,56 L193,58 L196,59 L197,62 L196,64 L201,64 L201,66 L203,66 L203,68 L207,69 L208,73 L212,73 L212,75 L216,77 L219,79 L219,81 L223,82 L223,84 L225,84 L225,86 L227,86 L227,88 L231,89 L239,93 L240,97 L241,100 L245,102 L246,107 L250,109 L251,113 L253,113 L257,118 L257,120 L261,121 L263,126 L265,126 L268,134 L267,136 L274,137 L274,139 L277,140 L280,144 L282,150 L285,152 L285,154 L289,156 L289,158 L293,159 L293,161 L296,162 L295,167 L297,167 L297,169 L299,169 L301,175 L303,180 L305,180 L306,178 L307,179 L309,188 L311,192 L313,205 L313,216 L312,216 L311,203 L309,203 L306,195 L305,188 L304,184 L298,184 L297,180 L294,180 L293,172 L289,173 L289,171 L285,170 L285,167 L283,167 L280,164 L280,158 L276,156 L271,151 L269,149 L269,146 L264,144 L258,141 L254,135 L254,133 L250,133 L250,131 L248,131 L248,129 L244,127 L243,124 L241,124 L240,120 L237,119 L237,117 L235,116 L238,116 L238,113 L235,113 L232,110 L229,109 L229,107 L227,107 L227,105 L224,105 L222,100 L219,95 L216,94 L216,92 L204,90 L203,86 L201,86 L201,81 L196,79 L186,70 L181,68 L180,64 L177,63 L176,58 L173,57 L173,55 L170,55 L170,53 L167,53 L166,51 L160,50 L160,47 L155,46 L152,45 L152,43 L150,43 L147,37 L145,35 L138,34 L133,32 L133,30 L124,29 L120,27 L120,25 L111,23 L105,21 L105,19 L92,17 L87,14 L77,12 L66,11 L66,9 L55,8 L40,6 L40,4 L21,4 L21,2 L16,4 L1,3 Z " fill="#D65948" transform="translate(492,163)"/>
<path d="M0,0 L1,2 L0,4 L4,5 L4,11 L8,14 L13,16 L12,24 L10,27 L5,27 L4,34 L-2,35 L-5,34 L-7,39 L-8,42 L-5,42 L-4,40 L-1,40 L0,42 L4,43 L5,53 L6,57 L5,60 L5,69 L12,71 L13,75 L15,75 L16,82 L18,82 L18,84 L28,85 L30,89 L35,90 L37,95 L42,94 L47,89 L49,89 L47,93 L36,102 L30,106 L21,113 L12,119 L8,122 L3,125 L-1,128 L-4,128 L-6,132 L-12,134 L-9,122 L-8,117 L-11,108 L-15,106 L-19,96 L-16,89 L-15,84 L-11,83 L-7,86 L-7,91 L-11,91 L-11,95 L-6,96 L-5,101 L-4,107 L-2,111 L0,107 L4,109 L7,112 L2,99 L2,97 L0,97 L-2,93 L-5,91 L-5,84 L-11,76 L-13,71 L-13,68 L-15,68 L-15,66 L-18,66 L-20,64 L-22,62 L-21,60 L-24,54 L-24,52 L-23,51 L-25,50 L-26,48 L-26,50 L-29,50 L-28,58 L-24,59 L-23,66 L-24,70 L-26,70 L-28,61 L-30,61 L-30,59 L-34,57 L-33,51 L-41,50 L-44,53 L-44,51 L-47,53 L-51,52 L-46,48 L-43,49 L-37,44 L-30,40 L-27,35 L-19,28 L-14,23 L-8,18 L-6,12 L-8,13 L-6,8 Z " fill="#AA0031" transform="translate(612,444)"/>
<path d="M0,0 L1,0 L2,6 L4,6 L4,13 L2,18 L3,22 L5,22 L5,26 L8,26 L8,55 L6,61 L3,81 L-1,101 L-5,115 L-7,117 L-11,128 L-14,137 L-16,137 L-17,143 L-21,150 L-27,162 L-30,165 L-35,174 L-42,183 L-45,188 L-52,196 L-53,199 L-57,203 L-59,203 L-60,207 L-65,212 L-68,213 L-70,217 L-72,217 L-74,221 L-77,222 L-78,228 L-85,234 L-86,236 L-91,239 L-92,241 L-98,243 L-99,245 L-104,248 L-109,254 L-119,260 L-129,268 L-132,269 L-137,274 L-139,274 L-139,276 L-143,277 L-141,283 L-138,285 L-139,287 L-149,287 L-154,281 L-155,274 L-152,274 L-152,272 L-147,269 L-145,269 L-144,266 L-139,263 L-134,259 L-132,258 L-130,252 L-119,243 L-111,237 L-110,235 L-105,232 L-96,224 L-88,217 L-81,209 L-73,202 L-64,192 L-62,189 L-60,189 L-58,185 L-55,182 L-44,165 L-38,155 L-35,153 L-31,146 L-29,146 L-27,139 L-23,132 L-21,125 L-19,125 L-19,120 L-17,120 L-16,115 L-12,101 L-10,101 L-9,91 L-8,87 L-6,87 L-6,80 L-4,79 L-4,73 L-3,72 L-1,46 Z " fill="#202F2B" transform="translate(810,363)"/>
<path d="M0,0 L2,0 L2,5 L5,5 L5,2 L9,1 L11,7 L8,7 L5,7 L4,9 L7,9 L7,12 L10,11 L15,16 L16,19 L19,21 L22,29 L22,42 L24,42 L23,35 L31,36 L35,39 L35,44 L28,45 L31,46 L31,48 L34,48 L35,50 L35,58 L32,59 L32,61 L35,62 L37,73 L39,75 L42,84 L44,90 L47,89 L49,85 L51,84 L53,80 L54,84 L47,93 L42,98 L38,101 L38,99 L36,99 L34,103 L29,106 L25,105 L24,100 L19,99 L17,96 L7,94 L7,92 L5,92 L4,85 L2,85 L0,81 L-7,79 L-7,70 L-6,66 L-7,63 L-7,53 L-12,52 L-12,50 L-15,50 L-16,53 L-19,52 L-18,48 L-16,44 L-7,44 L-6,37 L-1,36 L1,30 L1,26 L-6,23 L-9,20 L-7,20 L-7,15 L-9,15 L-7,10 L-4,4 L-2,4 L-2,1 Z " fill="#8D0045" transform="translate(623,434)"/>
<path d="M0,0 L12,0 L20,7 L20,9 L22,9 L22,11 L24,11 L30,18 L35,23 L38,28 L41,33 L61,53 L65,59 L65,61 L67,61 L67,63 L71,65 L76,71 L80,74 L80,76 L84,78 L89,84 L93,87 L93,89 L97,91 L101,96 L106,100 L106,102 L110,104 L116,113 L128,125 L128,127 L132,129 L138,136 L144,148 L144,226 L140,232 L136,234 L115,234 L111,232 L104,224 L98,216 L93,211 L93,209 L89,207 L88,204 L84,202 L84,200 L80,198 L80,196 L76,194 L76,192 L72,190 L71,187 L68,186 L62,177 L21,136 L15,127 L7,120 L1,111 L-3,99 L-4,63 L-6,62 L-7,59 L-7,7 L-5,3 Z M3,6 L0,8 L0,85 L2,98 L4,106 L7,113 L21,127 L23,127 L25,132 L38,145 L41,149 L43,149 L44,153 L49,158 L53,162 L55,162 L57,166 L62,170 L69,179 L74,184 L79,190 L84,195 L94,205 L97,210 L100,211 L104,216 L109,221 L110,224 L114,226 L118,226 L118,229 L129,229 L132,228 L133,224 L135,224 L140,210 L141,206 L141,160 L140,152 L137,150 L135,141 L130,138 L128,134 L122,129 L116,121 L111,116 L95,99 L86,89 L81,86 L79,82 L77,82 L76,78 L68,71 L57,59 L52,54 L50,54 L48,49 L43,44 L29,29 L18,19 L9,8 L7,6 Z " fill="#233834" transform="translate(230,361)"/>
<path d="M0,0 L53,0 L62,2 L79,5 L92,8 L99,11 L116,17 L121,20 L127,22 L144,31 L149,34 L149,36 L154,38 L162,43 L163,45 L167,47 L168,49 L173,52 L173,54 L179,56 L185,63 L188,64 L194,71 L196,72 L198,76 L205,82 L211,90 L211,92 L214,93 L214,96 L216,96 L216,98 L218,98 L222,105 L226,110 L231,119 L237,129 L237,132 L239,132 L248,153 L253,167 L255,172 L257,179 L262,203 L264,223 L265,227 L265,249 L262,249 L262,245 L259,246 L258,241 L260,236 L261,229 L258,230 L258,223 L256,223 L252,196 L248,180 L241,160 L237,150 L234,144 L229,134 L223,123 L218,115 L212,106 L212,104 L209,104 L208,101 L203,96 L198,88 L198,86 L194,84 L185,75 L185,73 L183,73 L183,71 L179,70 L173,65 L168,60 L155,49 L146,43 L141,41 L137,38 L137,40 L135,39 L136,36 L131,35 L126,31 L120,29 L114,26 L98,20 L88,17 L86,15 L77,14 L52,9 L52,6 L47,5 L47,3 L40,3 L39,5 L23,5 L22,6 L1,6 L1,4 L-3,3 L0,3 Z " fill="#273C36" transform="translate(553,140)"/>
<path d="M0,0 L3,0 L4,16 L0,28 L-3,29 L-4,34 L-9,44 L-14,52 L-19,61 L-22,64 L-28,71 L-33,76 L-45,88 L-53,95 L-57,97 L-60,101 L-65,101 L-66,106 L-68,108 L-73,110 L-83,117 L-87,118 L-87,120 L-91,121 L-91,123 L-99,127 L-107,132 L-120,140 L-125,142 L-125,144 L-134,149 L-136,154 L-137,152 L-146,157 L-155,164 L-158,165 L-160,169 L-169,178 L-176,188 L-178,188 L-180,194 L-183,199 L-185,200 L-189,216 L-193,225 L-194,240 L-196,246 L-193,246 L-188,255 L-187,268 L-184,269 L-188,271 L-188,266 L-191,266 L-191,272 L-193,269 L-197,262 L-200,247 L-200,223 L-197,207 L-195,202 L-188,188 L-182,179 L-180,179 L-179,175 L-177,175 L-175,171 L-162,158 L-160,158 L-159,155 L-155,153 L-153,150 L-150,149 L-147,146 L-142,142 L-139,139 L-133,137 L-128,133 L-117,127 L-115,127 L-115,125 L-109,122 L-101,116 L-97,114 L-94,114 L-94,112 L-91,111 L-88,108 L-82,106 L-82,104 L-76,100 L-70,98 L-68,94 L-56,85 L-52,81 L-46,76 L-41,70 L-33,63 L-32,60 L-29,57 L-28,55 L-26,55 L-24,50 L-22,50 L-20,44 L-17,41 L-15,35 L-13,35 L-10,26 L-5,14 L-1,1 Z " fill="#1F302C" transform="translate(619,389)"/>
<path d="M0,0 L1,2 L4,3 L5,8 L7,9 L8,12 L13,11 L15,16 L10,16 L11,19 L8,19 L10,23 L15,23 L16,25 L16,30 L23,33 L27,38 L27,43 L33,42 L33,44 L30,44 L32,51 L34,51 L36,57 L36,61 L45,61 L46,66 L47,71 L49,74 L54,75 L57,84 L57,86 L60,89 L65,94 L67,97 L71,99 L72,103 L76,104 L76,108 L81,108 L81,111 L84,112 L85,121 L87,121 L87,128 L92,129 L94,135 L100,138 L100,140 L102,140 L102,142 L109,143 L114,148 L116,155 L117,158 L122,159 L126,168 L129,170 L136,169 L137,167 L142,167 L143,170 L141,170 L141,172 L143,172 L143,174 L149,174 L149,179 L153,179 L152,182 L155,183 L154,188 L145,187 L141,184 L134,182 L124,178 L106,174 L104,175 L102,174 L102,170 L110,171 L111,166 L106,163 L106,160 L104,160 L102,154 L98,150 L98,148 L94,147 L91,144 L91,142 L83,140 L83,135 L79,135 L76,128 L76,125 L71,123 L71,120 L67,120 L66,116 L64,116 L64,114 L62,114 L60,107 L57,105 L57,103 L54,102 L53,98 L51,98 L49,90 L47,90 L47,88 L45,88 L45,86 L40,86 L37,84 L34,71 L32,71 L32,69 L28,70 L26,68 L23,59 L21,54 L17,52 L14,47 L15,45 L17,46 L18,41 L14,40 L14,38 L9,37 L8,32 L8,25 L2,25 L0,24 L-3,7 L-3,3 L0,3 Z " fill="#D9382E" transform="translate(670,678)"/>
<path d="M0,0 L3,0 L1,5 L-4,13 L-9,21 L-11,21 L-11,28 L-15,34 L-21,39 L-23,42 L-25,42 L-24,38 L-26,38 L-26,36 L-28,37 L-29,41 L-38,43 L-42,42 L-45,51 L-46,54 L-49,54 L-49,56 L-53,60 L-55,60 L-55,62 L-60,62 L-60,65 L-64,67 L-69,67 L-70,70 L-78,70 L-82,72 L-82,76 L-84,76 L-85,79 L-89,81 L-91,85 L-101,90 L-102,99 L-112,101 L-114,104 L-107,104 L-107,107 L-118,106 L-122,105 L-124,109 L-119,110 L-119,116 L-125,117 L-129,115 L-127,122 L-128,128 L-130,128 L-130,130 L-134,130 L-134,132 L-141,134 L-140,135 L-134,135 L-139,140 L-145,145 L-147,145 L-146,141 L-144,141 L-144,139 L-142,138 L-144,136 L-142,133 L-146,132 L-146,130 L-148,130 L-148,128 L-140,127 L-140,131 L-137,131 L-137,125 L-135,124 L-135,115 L-131,111 L-127,112 L-127,107 L-132,106 L-132,103 L-129,103 L-129,101 L-131,100 L-125,94 L-116,93 L-115,89 L-111,89 L-110,84 L-106,83 L-106,81 L-108,81 L-107,76 L-105,74 L-103,69 L-100,67 L-95,66 L-94,63 L-98,61 L-90,60 L-90,67 L-85,64 L-80,63 L-81,58 L-75,55 L-70,55 L-68,51 L-63,50 L-63,48 L-61,48 L-61,46 L-59,46 L-59,37 L-52,38 L-51,35 L-49,35 L-48,31 L-46,31 L-48,26 L-44,24 L-32,18 L-32,15 L-29,14 L-35,13 L-35,12 L-27,12 L-26,15 L-23,15 L-22,12 L-19,13 L-18,15 L-15,12 L-10,9 L-9,5 L-11,5 L-11,1 L-9,1 L-8,4 L-6,5 L-6,3 L-1,3 Z " fill="#660037" transform="translate(769,514)"/>
<path d="M0,0 L2,0 L3,6 L6,9 L3,18 L0,25 L-4,35 L-7,38 L-9,38 L-9,35 L-12,34 L-12,29 L-14,29 L-15,34 L-19,35 L-19,38 L-23,40 L-24,43 L-27,42 L-27,38 L-32,37 L-33,39 L-31,39 L-32,46 L-42,46 L-46,48 L-53,47 L-56,48 L-57,53 L-64,57 L-66,59 L-67,50 L-68,59 L-75,59 L-77,58 L-77,56 L-79,56 L-80,59 L-87,59 L-87,62 L-89,62 L-90,58 L-89,54 L-93,54 L-91,49 L-85,41 L-82,33 L-84,34 L-82,28 L-79,24 L-77,17 L-75,17 L-74,14 L-73,17 L-75,24 L-72,24 L-72,28 L-69,28 L-69,23 L-64,23 L-60,20 L-58,20 L-58,18 L-52,17 L-40,17 L-32,14 L-28,15 L-28,20 L-25,20 L-25,16 L-23,16 L-24,11 L-12,10 L-11,7 L-2,6 Z M-94,54 Z M-95,55 Z M-96,56 Z M-97,57 Z M-98,58 Z " fill="#960044" transform="translate(787,465)"/>
<path d="M0,0 L2,0 L11,11 L24,24 L29,29 L31,33 L33,40 L38,42 L39,43 L39,48 L38,53 L35,53 L34,59 L25,62 L26,68 L25,70 L21,71 L19,73 L10,73 L19,74 L20,76 L26,74 L28,73 L29,68 L30,61 L32,61 L33,75 L37,74 L38,63 L42,64 L47,66 L48,62 L56,61 L56,66 L59,67 L56,67 L56,69 L48,76 L42,83 L41,85 L38,85 L38,88 L33,93 L30,92 L30,85 L21,86 L21,83 L16,83 L16,85 L13,85 L13,81 L9,81 L9,78 L7,79 L9,85 L11,85 L11,87 L7,86 L3,82 L-3,70 L-3,48 L-2,31 L0,30 Z " fill="#C2000C" transform="translate(169,473)"/>
<path d="M0,0 L9,0 L14,5 L19,10 L22,12 L24,18 L28,20 L29,24 L32,25 L36,29 L38,33 L45,39 L48,44 L53,49 L55,54 L58,55 L62,59 L64,63 L70,68 L73,73 L78,77 L81,83 L86,87 L89,92 L97,99 L98,102 L103,107 L110,115 L111,119 L114,120 L120,127 L124,132 L129,137 L129,140 L134,142 L137,148 L143,153 L145,157 L152,163 L155,168 L160,172 L163,178 L167,182 L167,184 L170,185 L174,189 L177,194 L182,198 L185,203 L189,207 L189,209 L194,211 L197,215 L197,217 L199,217 L199,219 L201,219 L201,233 L199,233 L199,236 L195,237 L195,239 L187,239 L187,237 L179,236 L176,234 L177,233 L191,232 L193,228 L193,230 L195,230 L192,223 L189,220 L183,213 L179,210 L179,207 L176,206 L170,198 L166,194 L159,186 L147,171 L142,167 L133,156 L126,147 L121,142 L112,132 L101,118 L96,113 L87,103 L84,98 L78,93 L74,87 L61,72 L50,60 L39,46 L31,38 L24,29 L17,21 L16,18 L12,16 L8,11 L5,9 L2,4 Z " fill="#243B34" transform="translate(662,649)"/>
<path d="M0,0 L2,0 L3,7 L12,8 L13,10 L10,12 L13,12 L13,14 L6,14 L3,13 L3,10 L-2,10 L1,18 L-3,19 L-4,21 L12,23 L14,29 L14,32 L18,33 L21,36 L31,36 L31,38 L35,40 L36,38 L38,38 L38,40 L41,39 L43,39 L47,36 L54,35 L57,34 L58,30 L56,30 L57,27 L64,22 L69,22 L71,16 L72,12 L77,16 L77,18 L76,19 L77,21 L79,21 L80,26 L76,41 L74,47 L72,47 L72,57 L71,64 L70,64 L70,57 L68,57 L68,65 L67,68 L69,73 L69,79 L66,81 L65,87 L58,85 L56,81 L53,81 L53,79 L49,77 L49,73 L46,73 L42,67 L41,63 L41,56 L36,56 L36,58 L34,58 L34,51 L24,51 L22,47 L18,46 L16,41 L14,41 L14,37 L9,36 L6,35 L5,37 L1,33 L1,31 L-2,32 L-10,21 L-15,10 L-13,5 L-12,1 L-8,9 L-6,9 L-1,8 Z " fill="#B30025" transform="translate(447,634)"/>
<path d="M0,0 L89,0 L121,1 L137,3 L137,5 L145,5 L145,7 L155,9 L165,14 L174,17 L181,20 L194,23 L194,26 L203,28 L203,30 L205,30 L205,32 L209,32 L210,35 L216,38 L225,40 L233,45 L235,47 L240,49 L242,54 L246,55 L251,60 L251,67 L256,67 L256,69 L260,70 L267,75 L275,77 L283,84 L291,95 L294,100 L301,109 L303,110 L305,119 L311,127 L313,128 L315,137 L317,137 L319,146 L314,143 L312,137 L308,136 L307,133 L307,130 L302,131 L297,120 L297,116 L294,116 L292,112 L284,105 L284,98 L279,98 L278,95 L272,93 L272,90 L269,90 L269,88 L267,88 L267,86 L265,85 L266,82 L262,82 L262,80 L258,78 L254,77 L254,75 L250,74 L249,72 L246,71 L246,68 L242,67 L242,62 L240,59 L232,56 L225,51 L224,49 L211,47 L209,46 L209,42 L203,41 L203,38 L201,38 L197,34 L189,31 L188,28 L181,25 L169,22 L158,19 L151,17 L139,15 L135,13 L126,12 L121,10 L99,6 L99,4 L22,4 L6,3 L0,2 Z " fill="#C78C7F" transform="translate(469,154)"/>
<path d="M0,0 L7,2 L19,3 L19,6 L66,6 L81,7 L117,7 L129,8 L132,9 L149,9 L174,8 L227,8 L230,9 L231,7 L231,9 L239,8 L320,8 L331,7 L334,7 L334,10 L340,9 L340,7 L348,7 L355,9 L356,13 L360,14 L362,21 L365,28 L366,33 L366,62 L363,67 L362,76 L360,76 L360,81 L359,81 L358,76 L358,68 L355,68 L356,59 L356,34 L353,24 L350,18 L347,16 L345,15 L299,15 L274,14 L88,13 L79,12 L7,11 L-5,8 L-7,6 L-5,6 L-5,3 L0,2 Z " fill="#202726" transform="translate(264,321)"/>
<path d="M0,0 L8,1 L9,5 L8,8 L10,8 L13,11 L12,13 L10,16 L8,16 L10,19 L12,21 L14,32 L18,33 L19,41 L18,44 L20,44 L20,49 L22,49 L23,42 L25,43 L25,51 L24,56 L29,63 L31,66 L33,65 L37,84 L39,86 L39,98 L37,98 L37,103 L39,103 L40,100 L41,104 L40,107 L42,107 L43,109 L46,108 L49,104 L51,104 L51,98 L57,95 L56,100 L46,113 L41,118 L40,115 L38,119 L36,119 L34,124 L30,124 L26,114 L24,108 L23,107 L21,96 L19,95 L19,93 L21,92 L21,82 L18,82 L18,80 L14,79 L18,78 L22,78 L21,73 L18,71 L11,70 L12,66 L13,68 L19,67 L18,64 L15,63 L15,50 L10,52 L14,54 L12,61 L10,61 L11,76 L9,76 L8,63 L5,55 L2,53 L1,50 L-4,46 L-6,46 L-6,43 L-9,43 L-8,40 L-3,41 L-5,36 L-8,36 L-8,39 L-11,39 L-11,34 L-15,35 L-15,38 L-17,39 L-21,47 L-24,48 L-22,40 L-17,32 L-9,14 L-6,6 L-5,10 L-5,12 L-1,12 L0,17 L1,14 L0,11 L-2,10 L-2,6 L0,6 Z " fill="#71003C" transform="translate(636,400)"/>
<path d="M0,0 L2,0 L2,13 L3,21 L13,21 L19,18 L21,18 L22,14 L30,13 L38,10 L41,10 L41,7 L38,6 L40,2 L41,1 L68,1 L68,5 L72,6 L72,8 L77,7 L76,18 L72,30 L68,30 L68,24 L66,25 L64,31 L55,32 L52,35 L42,35 L43,40 L41,40 L41,44 L38,44 L37,39 L28,41 L26,42 L8,42 L8,44 L2,48 L-3,47 L-3,52 L-6,52 L-6,48 L-9,48 L-8,41 L-6,38 L-3,27 L-1,3 Z " fill="#AF0036" transform="translate(721,441)"/>
<path d="M0,0 L10,0 L17,4 L24,12 L27,19 L27,21 L31,23 L31,25 L35,27 L36,30 L40,32 L40,34 L44,36 L44,38 L48,40 L49,43 L51,43 L57,52 L106,101 L115,115 L116,118 L116,152 L115,152 L113,129 L111,122 L105,112 L97,103 L96,99 L91,97 L86,91 L86,88 L82,87 L76,80 L71,75 L55,59 L48,51 L33,35 L28,30 L17,19 L10,11 L7,11 L4,9 L6,9 L6,7 L1,9 L-12,23 L-21,35 L-25,42 L-26,47 L-26,62 L-22,72 L-16,79 L-10,87 L-5,92 L5,102 L12,110 L24,123 L29,128 L45,145 L53,153 L53,155 L51,155 L46,150 L33,138 L-10,95 L-15,93 L-18,89 L-18,87 L-22,85 L-22,83 L-26,81 L-27,77 L-29,77 L-33,69 L-34,61 L-34,45 L-33,38 L-30,33 L-29,30 L-26,28 L-23,23 L-21,23 L-20,20 L-15,15 L-15,13 L-13,13 L-11,8 L-5,3 Z " fill="#253836" transform="translate(253,545)"/>
<path d="M0,0 L265,0 L295,5 L297,6 L296,10 L289,10 L280,8 L261,7 L256,6 L224,5 L-217,5 L-220,3 L-220,1 Z " fill="#B9ACA7" transform="translate(334,150)"/>
<path d="M0,0 L210,0 L211,2 L227,2 L231,1 L238,2 L251,1 L252,6 L273,6 L273,7 L168,8 L-21,8 L-26,6 L-26,5 L-20,4 L-19,2 L-16,1 Z M274,4 Z M273,5 Z " fill="#20302C" transform="translate(302,140)"/>
<path d="M0,0 L3,0 L3,3 L54,5 L54,8 L72,8 L75,9 L107,9 L108,8 L119,8 L127,10 L166,11 L191,10 L211,10 L222,11 L300,12 L326,14 L326,15 L306,15 L254,13 L254,15 L213,15 L174,18 L168,20 L163,19 L163,21 L155,21 L153,20 L146,21 L143,22 L132,22 L109,19 L103,17 L91,17 L86,18 L86,16 L77,16 L70,15 L65,16 L56,17 L54,14 L42,16 L32,16 L27,14 L28,11 L24,11 L24,18 L19,16 L18,11 L6,12 L1,10 L3,6 L-1,5 L0,3 L-9,4 L-10,6 L-12,3 L-10,3 L-10,1 L0,2 Z " fill="#EA1B00" transform="translate(154,165)"/>
<path d="M0,0 L7,1 L8,6 L11,6 L11,4 L16,6 L15,11 L20,11 L25,17 L27,18 L27,21 L30,21 L35,26 L44,34 L52,35 L53,36 L71,37 L245,38 L268,39 L268,40 L254,41 L264,44 L264,46 L252,46 L250,45 L237,44 L237,46 L230,48 L225,48 L225,50 L205,50 L205,48 L196,47 L192,45 L67,45 L49,43 L36,39 L34,38 L34,36 L30,34 L30,32 L26,30 L20,24 L20,22 L16,20 L16,18 L9,12 L8,8 L6,8 L0,1 Z " fill="#20302C" transform="translate(585,842)"/>
<path d="M0,0 L9,1 L19,11 L28,22 L30,23 L33,28 L39,32 L45,40 L50,45 L53,50 L59,55 L67,65 L76,75 L81,80 L81,82 L85,84 L91,92 L99,102 L102,107 L109,113 L109,115 L111,115 L112,119 L115,120 L122,129 L129,138 L132,141 L134,145 L142,152 L142,154 L145,155 L146,158 L145,159 L140,159 L140,162 L135,160 L129,152 L127,151 L125,147 L120,142 L116,137 L116,135 L114,135 L112,131 L108,128 L108,126 L105,125 L103,121 L101,120 L99,116 L94,111 L94,108 L91,107 L86,102 L86,99 L83,98 L79,94 L76,89 L71,85 L64,75 L59,71 L55,66 L55,64 L53,64 L49,60 L47,56 L41,51 L38,46 L33,41 L30,38 L30,36 L27,35 L25,31 L18,25 L12,18 L8,14 L2,9 L2,4 Z " fill="#20302C" transform="translate(119,165)"/>
<path d="M0,0 L240,0 L252,1 L261,5 L276,13 L289,23 L301,37 L307,48 L315,64 L319,77 L320,83 L320,119 L314,146 L309,161 L303,171 L302,175 L300,175 L298,180 L291,190 L285,198 L280,202 L277,206 L275,206 L274,209 L266,215 L264,215 L266,211 L270,206 L275,202 L279,196 L281,196 L282,193 L284,193 L286,188 L294,178 L298,170 L305,158 L311,141 L312,134 L314,134 L314,121 L317,90 L315,90 L315,87 L311,87 L309,61 L305,54 L302,46 L295,38 L287,28 L274,17 L268,13 L257,8 L243,5 L243,3 L227,3 L222,2 L222,4 L206,3 L190,4 L135,4 L29,3 L-24,2 L-24,1 Z " fill="#2A0216" transform="translate(397,322)"/>
<path d="M0,0 L1,0 L2,5 L4,6 L3,9 L1,8 L0,19 L-2,29 L-4,27 L-8,27 L-9,25 L-12,24 L-12,20 L-25,21 L-39,21 L-41,25 L-39,26 L-39,29 L-49,32 L-50,33 L-58,34 L-59,37 L-67,41 L-77,41 L-78,40 L-79,29 L-78,19 L-80,19 L-81,22 L-81,13 L-77,11 L-76,15 L-67,14 L-63,9 L-57,7 L-53,7 L-53,5 L-44,2 L-30,5 L-30,3 L-20,3 L-18,1 L-7,1 L-1,3 Z " fill="#C60024" transform="translate(801,422)"/>
<path d="M0,0 L11,0 L16,5 L29,6 L30,4 L44,4 L53,5 L54,7 L76,7 L76,9 L94,8 L119,9 L125,10 L140,9 L152,9 L152,10 L168,11 L209,12 L217,13 L271,13 L286,11 L286,9 L298,8 L301,10 L300,12 L308,12 L314,14 L326,15 L326,18 L329,20 L313,19 L297,18 L219,17 L208,16 L188,16 L161,17 L124,16 L116,14 L105,14 L104,15 L72,15 L69,14 L51,13 L51,10 L20,10 L-2,9 L0,8 L0,5 L-3,5 L-3,7 L-13,6 L-13,8 L-17,7 L-24,3 L-24,2 L-12,2 L-5,1 L0,2 Z " fill="#E92C10" transform="translate(157,160)"/>
<path d="M0,0 L13,0 L21,6 L24,10 L24,12 L28,14 L28,16 L31,17 L36,22 L41,28 L49,35 L49,37 L53,39 L53,41 L57,43 L64,51 L71,59 L78,65 L84,72 L87,74 L88,77 L88,84 L81,82 L76,77 L62,63 L55,55 L46,47 L39,39 L31,31 L27,27 L22,22 L16,15 L13,14 L9,8 L5,7 L2,8 L1,11 L-1,11 L0,27 L0,58 L2,69 L6,77 L11,86 L14,88 L17,93 L15,98 L21,98 L25,103 L27,110 L20,106 L20,104 L17,103 L17,101 L15,101 L15,99 L12,98 L12,96 L8,94 L8,92 L4,90 L3,87 L1,86 L-3,77 L-5,73 L-7,59 L-7,11 L-3,1 Z " fill="#253A37" transform="translate(228,674)"/>
<path d="M0,0 L39,0 L39,1 L246,3 L301,3 L323,2 L335,4 L338,8 L338,10 L341,11 L344,19 L345,30 L341,25 L339,20 L338,19 L338,13 L333,12 L333,8 L318,6 L318,8 L312,9 L310,6 L309,7 L298,8 L144,8 L127,9 L110,9 L101,8 L91,7 L59,7 L44,6 L-3,5 L-3,2 Z " fill="#1B1316" transform="translate(286,322)"/>
<path d="M0,0 L2,0 L2,2 L4,2 L4,7 L-5,17 L-12,23 L-19,31 L-30,41 L-38,48 L-41,48 L-43,52 L-52,59 L-61,66 L-62,68 L-67,71 L-75,77 L-84,84 L-87,84 L-89,89 L-91,91 L-92,88 L-90,88 L-90,86 L-97,87 L-99,90 L-101,84 L-101,79 L-91,80 L-91,78 L-93,77 L-91,77 L-91,74 L-96,74 L-97,72 L-94,69 L-84,70 L-79,71 L-79,68 L-86,68 L-84,64 L-74,63 L-74,54 L-66,49 L-63,49 L-62,43 L-57,42 L-56,40 L-54,40 L-54,36 L-49,33 L-42,33 L-41,31 L-32,29 L-32,26 L-27,26 L-27,24 L-25,24 L-23,20 L-21,20 L-21,18 L-18,18 L-16,9 L-14,6 L-8,6 L-7,5 L-1,5 Z " fill="#51012C" transform="translate(741,550)"/>
<path d="M0,0 L50,0 L52,1 L52,3 L62,4 L74,6 L83,9 L89,9 L92,11 L110,14 L115,16 L127,19 L136,22 L142,25 L143,28 L151,31 L154,33 L154,35 L156,35 L156,38 L162,39 L162,43 L177,45 L180,49 L185,52 L194,56 L196,59 L196,64 L199,65 L199,68 L203,69 L203,71 L207,72 L207,74 L212,75 L215,77 L215,79 L219,79 L220,85 L222,85 L222,87 L225,87 L225,90 L229,91 L232,94 L237,95 L238,102 L246,109 L247,113 L250,113 L254,123 L253,127 L253,124 L249,124 L248,127 L246,126 L246,121 L244,121 L243,117 L239,117 L235,111 L230,106 L228,102 L226,102 L224,96 L218,95 L218,93 L216,93 L214,88 L212,87 L212,85 L210,85 L209,82 L200,78 L196,73 L192,70 L191,67 L183,63 L183,61 L180,61 L180,59 L176,57 L171,54 L169,50 L164,48 L164,46 L157,44 L151,39 L149,36 L141,33 L141,30 L133,29 L127,24 L118,21 L109,18 L100,15 L91,14 L89,13 L79,12 L79,10 L55,8 L46,5 L36,3 L36,1 L30,2 L-11,2 L-11,1 Z " fill="#CD796A" transform="translate(516,157)"/>
<path d="M0,0 L13,0 L17,2 L24,10 L30,15 L35,21 L37,25 L40,27 L40,29 L44,31 L50,38 L55,42 L58,47 L65,53 L71,60 L78,66 L82,70 L84,75 L84,87 L81,92 L77,93 L77,95 L75,95 L75,88 L70,88 L75,83 L74,78 L69,73 L66,68 L64,67 L64,65 L61,64 L56,59 L52,53 L46,48 L39,40 L24,24 L16,16 L10,9 L7,7 L-1,8 L-3,46 L-4,59 L-8,63 L-9,63 L-9,24 L-8,8 L-3,1 Z " fill="#273E3A" transform="translate(163,457)"/>
<path d="M0,0 L3,1 L11,11 L28,28 L35,36 L45,46 L50,51 L53,55 L41,53 L41,55 L36,55 L35,53 L36,51 L30,50 L30,42 L25,44 L26,55 L27,58 L26,60 L23,59 L19,55 L17,54 L17,58 L13,59 L13,61 L8,60 L6,62 L1,54 L0,49 Z " fill="#B00126" transform="translate(234,688)"/>
<path d="M0,0 L2,3 L7,12 L13,19 L16,24 L21,29 L32,43 L36,49 L41,53 L41,55 L45,56 L48,59 L50,59 L52,64 L60,73 L60,75 L63,76 L64,81 L68,83 L75,91 L75,93 L79,93 L83,101 L91,108 L94,110 L98,120 L105,125 L104,133 L101,134 L97,129 L91,124 L88,120 L88,117 L84,115 L84,113 L81,112 L80,109 L73,103 L71,99 L65,94 L60,89 L60,86 L58,86 L54,81 L54,79 L50,77 L48,76 L45,71 L45,69 L42,68 L37,63 L37,61 L33,59 L33,57 L31,57 L28,52 L21,46 L18,42 L15,38 L15,36 L12,35 L12,32 L8,30 L6,25 L4,25 L2,21 L0,20 L-3,14 L-3,7 L0,7 L0,12 L3,10 L1,9 Z " fill="#1C2B29" transform="translate(431,648)"/>
<path d="M0,0 L189,0 L189,1 L170,2 L169,5 L165,6 L168,8 L33,8 L2,7 L-1,6 L-2,12 L-7,12 L-7,7 L-1,2 Z " fill="#253B34" transform="translate(113,140)"/>
<path d="M0,0 L119,0 L142,2 L165,7 L170,7 L171,9 L189,15 L201,20 L204,22 L210,24 L215,28 L219,29 L219,32 L213,30 L191,20 L173,13 L159,9 L129,4 L-355,3 L-355,1 Z " fill="#131811" transform="translate(470,147)"/>
<path d="M0,0 L15,0 L21,2 L24,5 L31,11 L34,20 L34,36 L31,45 L29,45 L28,49 L23,54 L18,57 L14,58 L-3,58 L-12,53 L-12,51 L-17,49 L-18,46 L-20,46 L-24,37 L-25,35 L-25,24 L-21,14 L-17,12 L-16,9 L-7,4 L-5,4 L-5,2 Z M2,6 L0,10 L-5,12 L-11,15 L-15,18 L-18,26 L-18,35 L-13,40 L-9,45 L-7,45 L-5,49 L-2,50 L-2,52 L7,52 L17,48 L24,38 L26,34 L26,22 L24,20 L22,15 L11,6 Z " fill="#243A36" transform="translate(180,349)"/>
<path d="M0,0 L2,0 L2,4 L6,6 L11,15 L13,19 L15,20 L16,23 L17,19 L19,25 L19,46 L17,54 L15,52 L15,46 L10,48 L7,48 L7,46 L9,46 L9,38 L7,38 L7,44 L6,46 L-2,46 L-3,43 L-6,46 L-12,44 L-12,42 L-17,41 L-18,44 L-20,44 L-20,49 L-23,45 L-23,29 L-19,25 L-15,25 L-12,19 L-6,12 L-4,8 L-2,8 L-1,1 Z " fill="#A80038" transform="translate(320,802)"/>
<path d="M0,0 L6,0 L6,3 L10,5 L16,11 L19,20 L19,24 L27,28 L26,36 L30,34 L33,36 L33,38 L36,39 L38,44 L40,44 L40,47 L46,46 L53,54 L54,57 L59,62 L61,68 L62,70 L62,77 L64,77 L65,79 L68,80 L68,86 L70,86 L73,96 L75,97 L75,104 L77,105 L72,105 L72,101 L67,100 L66,96 L62,94 L57,89 L55,84 L52,83 L51,77 L50,72 L45,72 L41,66 L41,59 L32,58 L30,53 L30,48 L28,48 L28,46 L26,45 L26,41 L29,41 L29,39 L23,40 L21,34 L18,31 L12,28 L11,27 L11,21 L4,19 L4,16 L6,15 L6,13 L11,13 L9,8 L5,8 L4,10 L3,6 L0,5 Z M77,103 Z " fill="#D7463B" transform="translate(674,681)"/>
<path d="M0,0 L4,0 L4,2 L-2,7 L-11,18 L-21,30 L-25,39 L-25,55 L-21,63 L-18,66 L-18,68 L-15,69 L-11,74 L-11,76 L-8,77 L-1,85 L8,94 L15,102 L34,121 L41,129 L59,147 L66,155 L81,170 L88,178 L106,196 L106,199 L108,199 L108,202 L102,201 L94,193 L87,185 L79,177 L71,167 L67,162 L59,155 L57,151 L53,149 L52,146 L48,144 L33,129 L26,121 L26,119 L22,117 L13,108 L6,100 L-6,87 L-10,82 L-15,78 L-19,72 L-19,70 L-22,69 L-27,61 L-29,55 L-29,40 L-27,34 L-21,24 L-12,13 Z " fill="#16090E" transform="translate(255,552)"/>
<path d="M0,0 L3,0 L3,3 L5,3 L5,7 L8,6 L9,1 L13,1 L14,17 L16,17 L16,51 L12,50 L12,46 L8,47 L7,14 L3,14 L3,24 L2,30 L-5,33 L-10,33 L-10,31 L-7,29 L-11,26 L-12,23 L-16,30 L-23,30 L-24,28 L-27,27 L-26,30 L-28,30 L-28,25 L-29,21 L-33,19 L-35,15 L-39,15 L-42,10 L-41,8 L-35,10 L-34,14 L-30,15 L-26,17 L-24,13 L-14,8 L-12,8 L-10,4 L-5,3 L-5,5 L-1,5 Z " fill="#A80035" transform="translate(345,671)"/>
<path d="M0,0 L5,5 L12,13 L17,18 L25,27 L34,38 L47,52 L54,61 L65,73 L66,78 L63,79 L61,75 L60,79 L54,79 L53,75 L50,75 L47,70 L45,70 L42,67 L40,66 L40,64 L34,62 L34,60 L29,60 L27,49 L23,48 L22,44 L19,42 L19,39 L15,40 L15,33 L12,32 L10,22 L8,22 L8,16 L4,15 L4,13 L2,13 L0,4 Z " fill="#D25246" transform="translate(734,745)"/>
<path d="M0,0 L16,0 L19,3 L23,5 L23,7 L27,9 L32,15 L35,22 L35,33 L34,35 L32,35 L31,40 L26,46 L23,45 L22,43 L18,42 L20,40 L22,35 L26,32 L25,22 L22,19 L22,17 L18,15 L10,8 L5,8 L-3,15 L-7,21 L-8,33 L-6,33 L1,45 L4,47 L10,47 L10,50 L18,50 L15,52 L13,53 L2,53 L-3,51 L-10,43 L-13,40 L-14,34 L-16,34 L-16,25 L-14,18 L-10,9 L-5,4 L-3,1 Z " fill="#263835" transform="translate(176,635)"/>
<path d="M0,0 L2,0 L2,8 L8,9 L8,12 L13,13 L12,10 L20,11 L23,15 L26,16 L25,21 L20,23 L11,25 L18,24 L14,27 L14,33 L18,33 L20,33 L19,38 L11,41 L5,40 L4,42 L-3,41 L-10,35 L-14,35 L-15,30 L-19,25 L-21,21 L-20,17 L-17,17 L-17,19 L-15,19 L-16,16 L-11,16 L-11,12 L-6,14 L-2,18 L-3,13 L-3,2 Z " fill="#A90036" transform="translate(262,730)"/>
<path d="M0,0 L8,0 L17,2 L31,4 L31,7 L41,8 L44,10 L51,11 L58,14 L64,15 L64,17 L69,18 L74,22 L79,24 L84,30 L94,34 L103,40 L107,43 L107,45 L109,45 L116,53 L121,58 L129,63 L134,69 L138,71 L140,75 L130,73 L122,67 L119,66 L119,64 L114,64 L114,57 L110,55 L109,52 L104,51 L102,46 L97,44 L92,40 L85,37 L78,35 L72,32 L72,29 L68,29 L68,27 L66,27 L66,25 L57,23 L57,20 L48,19 L38,16 L33,13 L26,11 L18,7 L8,4 L8,2 L0,2 Z " fill="#C09D93" transform="translate(606,157)"/>
<path d="M0,0 L4,0 L5,2 L5,33 L9,32 L9,36 L11,36 L12,34 L14,58 L10,59 L7,55 L7,53 L3,51 L-8,40 L-11,36 L-11,34 L-15,32 L-20,27 L-20,25 L-24,23 L-30,15 L-30,13 L-26,14 L-26,16 L-19,14 L-19,12 L-14,8 L-12,13 L-9,16 L-13,17 L-13,19 L-4,16 L-1,16 L-1,3 Z " fill="#A3003A" transform="translate(348,685)"/>
<path d="M0,0 L2,4 L3,5 L3,22 L4,27 L6,27 L7,24 L7,28 L5,28 L8,36 L10,37 L13,43 L17,47 L21,51 L21,53 L28,55 L32,59 L32,61 L40,59 L43,56 L45,56 L47,52 L53,47 L54,45 L61,43 L62,41 L67,41 L67,37 L69,37 L69,34 L73,34 L73,32 L76,31 L77,29 L74,29 L75,25 L80,26 L80,33 L76,35 L74,38 L69,41 L65,47 L58,53 L52,60 L48,64 L43,66 L28,66 L22,63 L17,58 L9,51 L5,47 L4,44 L2,43 L-3,33 L-4,28 L-4,3 L-1,4 Z " fill="#1E322F" transform="translate(158,519)"/>
<path d="M0,0 L8,6 L9,9 L11,9 L12,7 L19,15 L29,24 L38,35 L47,45 L54,52 L61,60 L68,63 L69,59 L71,59 L71,31 L72,9 L73,6 L75,6 L75,8 L79,9 L79,61 L74,66 L71,67 L61,67 L55,64 L49,57 L44,52 L44,50 L42,49 L43,47 L41,47 L41,43 L37,41 L36,38 L32,36 L32,34 L28,32 L28,30 L24,28 L23,25 L19,23 L19,21 L15,19 L15,17 L11,15 L10,12 L6,10 L6,8 L3,7 L0,2 Z " fill="#253836" transform="translate(295,691)"/>
<path d="M0,0 L5,5 L6,9 L9,10 L11,15 L11,21 L16,21 L16,23 L22,25 L22,27 L27,29 L27,31 L30,30 L32,36 L35,36 L36,39 L42,39 L42,34 L45,36 L44,44 L46,44 L46,47 L52,47 L53,51 L60,53 L62,57 L68,60 L79,72 L78,74 L69,72 L67,68 L61,68 L61,66 L59,66 L59,64 L61,64 L60,62 L55,61 L54,64 L46,65 L46,63 L43,62 L40,56 L40,53 L35,52 L32,47 L30,39 L20,36 L20,34 L18,34 L17,32 L11,29 L9,23 L5,22 L5,15 L3,15 L1,11 L1,6 L-1,5 Z " fill="#D7463B" transform="translate(752,784)"/>
<path d="M0,0 L210,0 L218,2 L221,5 L23,4 L5,3 L0,1 Z " fill="#0E020A" transform="translate(633,876)"/>
<path d="M0,0 L9,0 L9,12 L7,11 L3,15 L1,21 L-2,22 L-4,25 L-6,25 L-8,29 L-10,35 L-12,35 L-13,39 L-13,58 L-11,70 L-6,80 L-6,84 L-4,84 L-2,88 L-3,96 L-7,93 L-7,91 L-10,90 L-13,87 L-16,82 L-19,74 L-21,68 L-21,34 L-17,26 L-15,26 L-16,23 L-11,20 L-8,14 L-5,11 L-2,7 Z " fill="#243333" transform="translate(306,790)"/>
<path d="M0,0 L1,0 L2,12 L2,29 L-8,59 L-16,75 L-21,84 L-30,96 L-42,110 L-59,126 L-72,136 L-90,149 L-111,162 L-139,179 L-146,183 L-148,181 L-139,175 L-136,175 L-136,173 L-123,165 L-117,161 L-105,154 L-102,154 L-102,152 L-98,151 L-98,149 L-90,144 L-83,139 L-78,137 L-76,132 L-70,130 L-68,127 L-63,124 L-47,109 L-41,102 L-39,102 L-37,98 L-34,95 L-29,89 L-26,83 L-23,78 L-19,72 L-16,65 L-14,60 L-12,59 L-7,44 L-6,39 L-4,39 L-4,30 L-1,25 Z " fill="#1B1315" transform="translate(630,358)"/>
<path d="M0,0 L2,0 L3,4 L5,4 L5,7 L7,7 L7,17 L2,16 L1,30 L-1,32 L-8,32 L-18,23 L-22,18 L-27,13 L-32,7 L-29,4 L-26,4 L-25,2 L-25,4 L-22,3 L-9,3 L-6,2 L0,2 Z " fill="#B40026" transform="translate(358,552)"/>
<path d="M0,0 L4,3 L7,8 L21,22 L28,30 L47,49 L54,57 L61,64 L68,72 L78,82 L85,90 L96,102 L105,112 L110,116 L112,117 L120,117 L125,112 L128,108 L127,117 L125,117 L124,121 L121,122 L110,122 L110,119 L105,118 L102,117 L98,110 L93,106 L92,104 L89,103 L83,95 L74,86 L67,78 L63,73 L58,68 L52,61 L47,57 L47,55 L43,53 L38,47 L35,45 L35,42 L31,40 L24,32 L17,25 L15,20 L11,18 L-2,5 Z " fill="#18070F" transform="translate(238,468)"/>
<path d="M0,0 L5,1 L9,3 L9,25 L5,42 L0,51 L-7,57 L-9,60 L-17,64 L-37,64 L-41,62 L-41,56 L-40,54 L-34,56 L-33,57 L-24,57 L-16,54 L-10,50 L-8,45 L-5,42 L-2,35 L-1,24 Z " fill="#162525" transform="translate(344,825)"/>
<path d="M0,0 L4,1 L5,5 L9,7 L13,14 L16,16 L16,20 L19,21 L22,25 L22,27 L27,29 L30,33 L30,35 L33,36 L39,44 L42,46 L44,52 L47,53 L47,55 L51,57 L62,70 L62,75 L55,77 L52,73 L52,70 L47,68 L41,60 L36,55 L36,53 L32,51 L31,48 L24,42 L23,39 L17,34 L15,30 L14,27 L12,27 L10,23 L6,19 L8,13 L7,8 L2,5 Z " fill="#20302C" transform="translate(527,764)"/>
<path d="M0,0 L297,0 L297,2 L299,3 L0,2 Z " fill="#D2032A" transform="translate(345,318)"/>
<path d="M0,0 L5,5 L13,13 L20,21 L31,33 L40,44 L52,57 L59,65 L71,79 L80,90 L92,104 L103,116 L110,124 L121,136 L129,145 L130,152 L127,151 L122,144 L121,139 L119,139 L114,133 L110,131 L101,120 L95,113 L90,109 L87,103 L82,98 L78,93 L74,89 L70,85 L65,80 L62,77 L61,73 L56,68 L53,63 L50,60 L49,58 L44,55 L44,51 L40,49 L35,45 L35,43 L32,42 L29,37 L29,34 L25,34 L17,24 L13,20 L12,17 L7,12 L0,4 Z " fill="#250217" transform="translate(481,707)"/>
<path d="M0,0 L5,1 L15,10 L35,30 L42,38 L49,45 L58,56 L67,66 L74,74 L83,84 L90,92 L101,105 L110,115 L121,129 L131,140 L140,151 L143,155 L144,161 L137,155 L134,150 L129,144 L119,131 L116,128 L116,126 L114,126 L110,121 L104,116 L101,110 L95,103 L88,94 L83,89 L83,87 L79,85 L70,75 L60,63 L57,61 L54,56 L52,52 L48,50 L43,43 L37,39 L35,37 L35,34 L31,32 L22,21 L13,12 L5,8 L4,4 L1,3 Z " fill="#280215" transform="translate(114,154)"/>
<path d="M0,0 L4,2 L28,26 L35,31 L35,34 L26,33 L26,28 L22,28 L21,30 L18,30 L17,33 L12,32 L8,30 L8,41 L3,42 L2,39 L2,28 L0,28 L0,35 L-2,41 L-7,43 L-11,43 L-11,41 L-20,41 L-21,39 L-10,39 L-9,36 L-5,37 L-6,29 L-1,26 L4,26 L5,20 L8,19 L7,15 L9,15 L7,9 L3,9 Z " fill="#BD010D" transform="translate(199,506)"/>
<path d="M0,0 L4,2 L12,6 L24,15 L36,25 L41,30 L46,33 L46,35 L48,35 L55,43 L61,48 L68,59 L69,62 L72,63 L72,66 L75,66 L82,77 L85,82 L89,88 L93,96 L98,106 L104,119 L110,136 L114,151 L117,164 L118,173 L118,183 L117,183 L114,165 L112,157 L108,141 L101,121 L91,99 L78,77 L66,61 L53,46 L38,31 L27,22 L11,10 L0,3 Z " fill="#16100E" transform="translate(690,178)"/>
<path d="M0,0 L1,2 L6,4 L9,7 L10,13 L18,13 L21,14 L28,22 L39,24 L42,30 L42,34 L47,36 L50,37 L50,39 L58,40 L61,42 L65,49 L70,57 L71,54 L74,54 L74,57 L78,58 L79,62 L81,62 L82,73 L79,73 L79,71 L76,70 L76,61 L73,65 L68,64 L63,50 L59,46 L54,43 L47,41 L42,39 L39,30 L35,29 L30,26 L30,28 L27,28 L27,26 L23,25 L20,25 L10,23 L9,22 L8,13 L3,11 L3,9 L-1,7 L-1,3 L-3,3 L-3,1 Z " fill="#E04029" transform="translate(722,304)"/>
<path d="M0,0 L4,1 L14,12 L14,14 L17,15 L25,25 L34,35 L39,42 L44,46 L51,55 L60,66 L65,71 L77,85 L83,92 L83,94 L86,95 L92,103 L94,104 L96,108 L104,115 L105,119 L108,120 L110,124 L110,127 L108,127 L103,120 L98,115 L89,106 L80,95 L71,85 L64,76 L52,63 L43,52 L30,37 L23,29 L14,19 L3,5 L0,2 Z " fill="#11100E" transform="translate(747,752)"/>
<path d="M0,0 L13,0 L19,5 L22,8 L24,12 L26,14 L31,22 L37,34 L39,42 L39,47 L31,44 L29,38 L27,38 L25,31 L23,31 L20,24 L17,18 L8,8 L0,6 Z " fill="#263636" transform="translate(313,781)"/>
<path d="M0,0 L8,3 L7,12 L1,19 L-1,19 L-1,21 L-11,26 L-20,29 L-32,32 L-46,32 L-53,30 L-57,21 L-59,17 L-65,17 L-63,13 L-59,15 L-54,19 L-51,20 L-51,23 L-46,24 L-31,26 L-31,28 L-20,25 L-19,22 L-11,16 L-3,10 L-1,7 Z " fill="#192624" transform="translate(308,755)"/>
<path d="M0,0 L6,2 L16,13 L22,20 L22,22 L26,24 L37,35 L44,43 L49,47 L49,50 L52,51 L53,54 L58,57 L65,64 L72,72 L84,85 L91,93 L98,101 L101,104 L104,108 L107,109 L109,118 L107,118 L101,109 L86,93 L79,85 L66,72 L66,70 L62,68 L55,60 L45,50 L38,42 L28,32 L21,24 L14,17 L14,15 L11,14 L4,6 L0,2 Z " fill="#16080F" transform="translate(258,393)"/>
<path d="M0,0 L47,0 L49,1 L73,2 L73,4 L84,4 L84,5 L10,5 L10,7 L-2,7 L-28,6 L-32,4 L-42,3 L-42,2 L0,2 Z " fill="#DB4C38" transform="translate(304,158)"/>
<path d="M0,0 L34,1 L34,2 L3,2 L3,4 L222,4 L222,5 L2,5 L3,11 L7,12 L8,16 L15,19 L15,21 L11,20 L7,19 L10,23 L8,27 L2,20 L-1,18 L-1,16 L-6,14 L-6,6 L-2,5 Z " fill="#434C41" transform="translate(112,146)"/>
<path d="M0,0 L5,4 L5,11 L12,12 L12,14 L7,13 L7,18 L9,18 L8,20 L6,19 L7,25 L11,29 L11,32 L16,31 L20,32 L20,34 L17,34 L21,38 L20,52 L21,54 L24,55 L26,71 L28,77 L28,82 L26,80 L19,57 L10,37 L4,27 L-5,12 L-8,7 L-3,7 L-2,4 L-4,4 L-4,2 L-1,2 Z " fill="#DF4029" transform="translate(688,294)"/>
<path d="M0,0 L7,1 L22,17 L33,28 L40,36 L56,53 L71,68 L78,76 L86,85 L86,87 L83,87 L82,84 L76,81 L63,67 L62,63 L61,60 L58,59 L51,51 L47,47 L42,46 L35,38 L26,28 L16,18 L9,10 L0,1 Z " fill="#BF9B8E" transform="translate(269,572)"/>
<path d="M0,0 L7,6 L11,10 L11,12 L14,13 L16,17 L21,22 L23,24 L22,30 L21,31 L15,31 L15,35 L11,37 L10,42 L5,43 L-1,51 L-6,56 L-12,61 L-17,66 L-20,68 L-26,68 L-30,63 L-30,61 L-34,59 L-35,56 L-37,56 L-36,54 L-27,61 L-26,62 L-20,62 L-6,48 L3,37 L13,29 L20,27 L18,23 L7,12 L1,5 Z " fill="#18090F" transform="translate(216,512)"/>
<path d="M0,0 L269,0 L269,1 L72,2 L48,3 L-1,3 Z " fill="#3C0022" transform="translate(325,321)"/>
<path d="M0,0 L1,4 L-8,18 L-15,26 L-17,30 L-17,54 L-12,67 L-8,73 L-3,77 L1,79 L10,78 L18,72 L17,79 L14,82 L7,84 L-2,84 L-10,79 L-11,75 L-13,75 L-16,67 L-19,61 L-21,49 L-21,30 L-19,26 L-17,26 L-17,21 L-13,16 L-9,12 L-6,11 L-4,4 L0,2 Z " fill="#18070E" transform="translate(313,799)"/>
<path d="M0,0 L2,0 L2,8 L0,8 L0,10 L5,8 L8,8 L9,14 L11,12 L11,17 L8,20 L3,19 L-3,18 L-3,28 L-5,28 L-6,23 L-6,19 L-11,17 L-10,26 L-13,27 L-14,29 L-20,25 L-20,23 L-23,22 L-24,12 L-20,12 L-8,14 L-8,11 L-8,8 L-1,8 Z " fill="#A20050" transform="translate(327,840)"/>
<path d="M0,0 L2,0 L0,4 L-3,12 L-23,32 L-37,43 L-48,51 L-63,61 L-65,62 L-64,57 L-54,49 L-43,41 L-29,30 L-22,23 L-14,16 L-5,6 Z " fill="#BF998F" transform="translate(602,451)"/>
<path d="M0,0 L5,5 L14,15 L23,26 L34,38 L41,46 L49,56 L62,71 L64,75 L62,77 L57,72 L46,60 L43,55 L38,50 L28,38 L21,30 L11,19 L4,10 L-3,2 Z " fill="#BB9D94" transform="translate(773,784)"/>
<path d="M0,0 L140,0 L165,1 L165,3 L3,3 Z " fill="#A0155F" transform="translate(639,872)"/>
<path d="M0,0 L4,1 L8,6 L8,8 L12,9 L20,18 L20,20 L25,22 L31,30 L27,28 L22,26 L18,22 L18,20 L15,19 L8,11 L2,5 L2,3 L-1,5 L-1,54 L0,61 L-4,60 L-6,52 L-6,5 Z " fill="#170D0F" transform="translate(233,680)"/>
<path d="M0,0 L6,2 L23,14 L37,25 L50,37 L60,47 L61,52 L58,51 L58,49 L53,47 L47,40 L41,37 L36,32 L33,29 L33,27 L29,25 L29,23 L27,23 L22,18 L13,12 L3,8 L3,6 L-1,4 Z " fill="#BAADA8" transform="translate(686,179)"/>
<path d="M0,0 L1,3 L-1,11 L-1,36 L2,48 L8,59 L20,75 L28,84 L35,92 L49,107 L47,109 L43,105 L40,104 L35,99 L29,91 L19,78 L14,73 L8,65 L4,60 L-1,49 L-5,34 L-5,17 L-4,8 Z " fill="#230411" transform="translate(432,599)"/>
<path d="M0,0 L328,1 L328,2 L1,2 Z " fill="#BB0014" transform="translate(266,319)"/>
<path d="M0,0 L326,0 L326,1 L0,1 Z " fill="#C78C7F" transform="translate(143,154)"/>
<path d="M0,0 L2,0 L1,3 L-12,12 L-21,18 L-28,22 L-31,25 L-35,29 L-46,36 L-55,42 L-63,48 L-67,52 L-70,51 L-63,43 L-55,37 L-52,34 L-50,34 L-48,30 L-42,26 L-32,19 L-19,11 L-10,5 L-6,4 Z " fill="#E00C09" transform="translate(633,561)"/>
<path d="M0,0 L5,5 L16,18 L26,33 L38,54 L47,74 L47,80 L44,78 L40,67 L40,64 L38,64 L36,55 L32,53 L27,46 L26,37 L23,36 L16,27 L13,22 L3,9 L0,6 Z " fill="#BF9D93" transform="translate(746,227)"/>
<path d="M0,0 L5,1 L8,3 L8,5 L12,7 L21,17 L31,27 L38,35 L47,45 L50,47 L51,53 L44,47 L37,40 L30,32 L21,23 L14,15 L3,4 L0,3 L-1,9 L-2,37 L-3,37 L-4,21 L-5,19 L-5,2 Z " fill="#1A0C0E" transform="translate(166,463)"/>
<path d="M0,0 L5,0 L16,12 L19,19 L20,24 L22,24 L24,28 L24,31 L26,31 L28,34 L28,61 L27,72 L23,80 L20,83 L18,88 L14,90 L15,82 L21,73 L24,65 L25,56 L25,44 L23,33 L15,19 L5,5 L0,2 Z " fill="#15070D" transform="translate(316,788)"/>
<path d="M0,0 L1,3 L-2,4 L-3,9 L-4,12 L-4,17 L-7,17 L-6,24 L-14,24 L-13,26 L-10,28 L-13,31 L-17,30 L-25,30 L-25,33 L-29,32 L-29,34 L-32,34 L-31,29 L-22,21 L-18,21 L-17,17 L-10,11 L-3,3 Z " fill="#970045" transform="translate(694,519)"/>
<path d="M0,0 L5,1 L7,5 L6,9 L6,11 L8,11 L8,1 L19,1 L19,6 L15,12 L9,17 L7,20 L-1,20 L-7,16 L-8,10 L-3,11 L0,9 Z " fill="#980049" transform="translate(316,857)"/>
<path d="M0,0 L9,0 L19,8 L15,10 L6,4 L1,5 L-4,10 L-13,14 L-16,19 L-16,26 L-12,32 L-4,39 L-1,41 L9,42 L7,43 L7,45 L5,46 L-4,46 L-4,44 L-8,42 L-9,39 L-11,39 L-18,30 L-20,29 L-20,20 L-17,12 L-10,7 L-4,4 L-2,4 Z " fill="#170A0F" transform="translate(182,355)"/>
<path d="M0,0 L8,1 L20,5 L28,8 L44,14 L63,20 L71,23 L88,29 L103,34 L99,36 L95,35 L97,35 L97,33 L90,34 L86,32 L79,30 L75,29 L75,27 L67,26 L49,19 L41,17 L41,15 L35,15 L35,13 L28,12 L19,9 L4,3 L0,2 Z " fill="#720031" transform="translate(684,822)"/>
<path d="M0,0 L3,1 L-5,7 L-6,11 L4,11 L4,9 L8,9 L8,6 L10,6 L11,10 L7,13 L-1,15 L-10,19 L-21,22 L-28,21 L-37,14 L-41,11 L-41,9 L-36,10 L-31,15 L-24,17 L-23,14 L-17,15 L-9,12 L-8,8 L-12,10 L-12,8 L-14,7 L-6,1 Z " fill="#B8134B" transform="translate(290,755)"/>
<path d="M0,0 L8,6 L15,14 L21,22 L32,34 L46,51 L53,59 L54,65 L49,61 L40,50 L28,37 L19,26 L9,15 L0,4 Z " fill="#100F0D" transform="translate(670,661)"/>
<path d="M0,0 L7,6 L18,18 L25,24 L32,32 L43,44 L43,46 L47,48 L54,56 L65,67 L61,69 L54,62 L47,54 L31,37 L20,26 L13,18 L-1,3 Z " fill="#170C0F" transform="translate(261,554)"/>
<path d="M0,0 L2,0 L2,7 L-1,26 L-4,35 L-6,41 L-13,53 L-16,54 L-19,59 L-22,59 L-24,64 L-28,70 L-32,73 L-34,73 L-34,71 L-32,71 L-30,66 L-24,59 L-17,48 L-15,48 L-14,43 L-8,31 L-3,16 Z " fill="#CE685E" transform="translate(714,449)"/>
<path d="M0,0 L4,2 L16,11 L23,12 L38,10 L44,7 L48,7 L48,5 L51,5 L50,9 L43,14 L39,18 L31,19 L31,17 L23,17 L16,16 L11,14 L11,11 L7,10 L-2,3 L0,2 Z " fill="#140B0E" transform="translate(246,764)"/>
<path d="M0,0 L3,0 L4,3 L11,2 L12,7 L11,10 L15,10 L16,6 L29,6 L28,10 L27,11 L21,11 L21,14 L25,15 L18,15 L17,18 L16,15 L14,15 L15,19 L12,18 L12,16 L5,16 L-4,13 L-4,12 L1,12 L1,5 Z " fill="#640036" transform="translate(595,646)"/>
<path d="M0,0 L5,5 L15,15 L22,23 L29,31 L34,36 L39,42 L41,49 L38,48 L36,44 L28,37 L17,25 L7,15 L0,7 L-4,2 L-2,1 L-2,3 L0,3 Z " fill="#BF988C" transform="translate(271,408)"/>
<path d="M0,0 L5,1 L5,4 L9,5 L16,11 L22,18 L25,23 L31,30 L31,32 L36,31 L37,35 L32,34 L29,35 L21,27 L14,19 L-3,2 Z " fill="#C3091A" transform="translate(128,159)"/>
<path d="M0,0 L4,2 L10,6 L17,13 L22,18 L33,29 L40,37 L47,44 L51,48 L51,56 L49,53 L40,42 L32,35 L27,29 L22,24 L0,2 Z " fill="#140B0E" transform="translate(257,706)"/>
<path d="M0,0 L10,1 L17,3 L203,4 L203,5 L4,6 L0,2 Z " fill="#260218" transform="translate(625,871)"/>
<path d="M0,0 Z M-1,1 L0,3 L-2,7 L-26,21 L-50,36 L-60,43 L-63,42 L-58,37 L-44,27 L-27,17 L-3,2 Z " fill="#BB9F96" transform="translate(538,507)"/>
<path d="M0,0 L5,1 L6,3 L11,4 L15,1 L18,10 L14,12 L4,10 L1,9 L2,19 L6,23 L5,26 L7,27 L5,29 L-2,21 L-5,14 L-7,14 L-8,4 L-7,4 L-6,9 L-4,5 Z " fill="#A40247" transform="translate(303,843)"/>
<path d="M0,0 L2,0 L3,55 L4,84 L7,95 L8,101 L6,103 L3,96 L1,87 L0,77 Z " fill="#17080F" transform="translate(230,369)"/>
<path d="M0,0 L3,1 L4,9 L4,55 L0,68 L-1,68 Z " fill="#2C0E14" transform="translate(367,512)"/>
<path d="M0,0 L6,2 L11,8 L13,12 L13,17 L8,21 L15,20 L15,22 L12,24 L10,25 L1,24 L2,19 L9,14 L1,15 L-5,20 L-8,19 L-7,14 L-11,14 L-8,11 L3,9 L5,4 L1,3 Z " fill="#A20034" transform="translate(283,742)"/>
<path d="M0,0 L2,0 L12,13 L24,27 L36,41 L43,49 L45,53 L40,52 L32,45 L31,40 L27,38 L26,34 L23,33 L16,23 L11,18 L3,8 L1,5 L-2,4 Z " fill="#B99D96" transform="translate(648,639)"/>
<path d="M0,0 L3,0 L3,7 L-6,27 L-16,42 L-23,51 L-24,47 L-20,42 L-22,41 L-14,30 L-6,15 Z " fill="#C48C7C" transform="translate(624,409)"/>
<path d="M0,0 L1,2 L-3,8 L-5,8 L-7,14 L-19,28 L-27,35 L-30,38 L-32,37 L-31,32 L-29,32 L-30,29 L-23,21 L-18,19 L-15,17 L-11,10 L-9,7 L-5,5 L-3,1 Z " fill="#DE4235" transform="translate(701,501)"/>
<path d="M0,0 L2,0 L6,4 L7,8 L0,15 L-6,16 L-13,13 L-20,8 L-20,6 L-16,4 L-1,4 Z " fill="#AB0632" transform="translate(193,380)"/>
<path d="M0,0 L1,0 L2,10 L3,0 L4,0 L4,14 L3,27 L3,71 L7,79 L6,83 L1,75 L-1,69 L-1,28 Z " fill="#C27D74" transform="translate(164,472)"/>
<path d="M0,0 L4,1 L4,3 L7,2 L8,0 L10,0 L10,9 L8,13 L6,5 L4,5 L3,10 L-12,10 L-17,12 L-19,10 L-19,4 L-12,2 L0,2 Z " fill="#C40019" transform="translate(189,375)"/>
<path d="M0,0 L164,1 L164,2 L10,3 L-19,3 L-20,1 Z " fill="#CA897C" transform="translate(139,154)"/>
<path d="M0,0 L8,1 L20,5 L44,15 L56,21 L54,24 L48,22 L42,18 L39,17 L39,15 L33,15 L26,12 L19,11 L12,8 L6,7 L6,4 L-1,3 Z " fill="#B8ABA6" transform="translate(631,157)"/>
<path d="M0,0 L4,2 L8,4 L12,6 L19,13 L26,21 L36,32 L41,40 L41,42 L37,41 L30,33 L16,18 L7,8 L0,1 Z " fill="#C1988B" transform="translate(325,471)"/>
<path d="M0,0 L6,3 L14,5 L19,9 L26,17 L28,21 L23,19 L13,18 L4,14 L6,13 L7,8 L3,7 L4,5 L1,6 Z " fill="#D73A2E" transform="translate(818,853)"/>
<path d="M0,0 L6,0 L7,4 L-8,15 L-19,22 L-33,32 L-48,41 L-52,44 L-55,43 L-47,37 L-38,32 L-28,25 L-20,20 L-19,18 L-13,15 L-3,8 L-2,6 L-8,11 L-13,13 L-17,15 L-15,11 L-5,4 Z " fill="#DC4037" transform="translate(656,542)"/>
<path d="M0,0 L1,2 L-4,12 L-13,24 L-21,34 L-28,40 L-29,43 L-34,45 L-43,53 L-55,61 L-59,64 L-61,63 L-52,55 L-42,48 L-34,41 L-32,41 L-31,38 L-23,31 L-14,21 L-9,12 L-5,8 L-3,2 Z " fill="#6F002D" transform="translate(705,497)"/>
<path d="M0,0 L2,0 L9,8 L12,11 L12,13 L15,14 L22,22 L39,39 L36,40 L31,37 L20,25 L8,13 L3,6 L0,5 L0,46 L-1,46 L-1,1 Z " fill="#BF9D93" transform="translate(233,683)"/>
<path d="M0,0 L4,1 L21,18 L27,25 L26,28 L21,26 L10,15 L4,7 L1,6 L1,16 L0,29 L-1,29 L-1,2 Z " fill="#BD9F95" transform="translate(166,466)"/>
<path d="M0,0 L2,0 L3,9 L3,23 L2,34 L0,39 L-1,47 L-5,57 L-7,61 L-7,56 L-9,56 L-7,47 L-3,34 L-2,27 L0,27 Z " fill="#C87971" transform="translate(634,353)"/>
<path d="M0,0 L1,0 L4,31 L4,67 L1,84 L0,84 Z " fill="#BE6D6D" transform="translate(804,343)"/>
<path d="M0,0 L19,4 L30,9 L37,11 L44,14 L56,19 L66,20 L71,22 L73,23 L73,26 L68,26 L68,24 L60,23 L52,20 L46,18 L28,12 L12,6 L1,2 Z " fill="#CE6162" transform="translate(775,851)"/>
<path d="M0,0 L4,2 L7,5 L7,7 L11,9 L15,14 L17,15 L20,20 L34,35 L43,45 L50,53 L57,60 L57,62 L64,63 L65,65 L59,65 L51,58 L43,50 L36,42 L27,32 L15,19 L6,8 L0,2 Z " fill="#AC1766" transform="translate(569,806)"/>
<path d="M0,0 L4,1 L9,5 L13,10 L16,11 L19,16 L24,21 L27,24 L35,34 L39,39 L42,45 L43,46 L43,52 L40,48 L32,36 L21,24 L7,9 L0,2 Z " fill="#160A0E" transform="translate(323,622)"/>
<path d="M0,0 L3,1 L4,9 L4,55 L2,81 L0,82 L0,79 L-2,79 L1,56 L1,20 L0,11 Z " fill="#211011" transform="translate(806,354)"/>
<path d="M0,0 L6,1 L15,8 L19,13 L19,23 L16,29 L15,25 L15,15 L10,10 L5,6 L0,7 L-3,10 L-11,11 L-14,14 L-16,14 L-15,10 L-5,5 Z " fill="#BB948E" transform="translate(184,358)"/>
<path d="M0,0 L4,1 L6,5 L9,6 L20,23 L21,32 L19,30 L19,26 L16,25 L10,13 L6,10 L6,6 L4,7 L2,14 L0,15 L-4,22 L-8,26 L-10,31 L-15,33 L-14,28 L-6,19 L0,9 L2,2 L-2,1 Z " fill="#99071E" transform="translate(316,796)"/>
<path d="M0,0 L2,0 L2,3 L6,3 L6,7 L9,7 L9,5 L14,5 L14,8 L23,7 L24,14 L26,16 L23,16 L21,23 L14,21 L13,19 L18,20 L19,17 L21,16 L20,12 L15,13 L8,13 L7,15 L2,11 L2,9 L4,9 L4,7 L2,7 L-1,3 Z " fill="#BC0229" transform="translate(176,551)"/>
<path d="M0,0 L3,0 L2,4 L-4,8 L-7,11 L-10,12 L-14,16 L-18,17 L-18,19 L-21,19 L-18,27 L-9,37 L-8,40 L-5,43 L-8,45 L-19,32 L-25,24 L-24,19 L-22,16 L-15,12 L-10,8 L-2,2 Z " fill="#11100E" transform="translate(676,618)"/>
<path d="M0,0 L7,1 L23,6 L28,8 L37,11 L44,14 L53,16 L53,19 L60,20 L68,22 L64,24 L57,22 L40,16 L25,11 L11,6 L1,2 Z " fill="#DA3435" transform="translate(647,806)"/>
<path d="M0,0 L3,4 L5,2 L11,21 L14,33 L16,53 L14,50 L10,37 L5,22 L5,13 L3,13 L2,6 L0,4 Z " fill="#BF8D85" transform="translate(789,302)"/>
<path d="M0,0 L7,6 L10,9 L10,11 L14,13 L14,15 L18,17 L23,23 L28,28 L34,33 L41,42 L50,51 L54,55 L53,58 L33,38 L26,30 L11,15 L4,7 L-1,1 Z " fill="#C12B52" transform="translate(303,686)"/>
<path d="M0,0 L3,3 L4,52 L6,58 L11,66 L17,75 L18,78 L14,76 L5,64 L2,57 L0,49 Z " fill="#C26568" transform="translate(231,685)"/>
<path d="M0,0 L1,0 L2,32 L2,78 L-3,79 L-2,77 Z " fill="#350A1B" transform="translate(364,672)"/>
<path d="M0,0 L7,0 L13,3 L26,7 L41,13 L47,15 L54,16 L62,20 L58,22 L48,19 L41,16 L28,12 L11,6 L0,2 Z " fill="#D45351" transform="translate(712,829)"/>
<path d="M0,0 L5,5 L7,8 L10,9 L12,14 L17,19 L26,29 L29,34 L24,35 L24,32 L22,32 L19,27 L14,23 L10,24 L10,16 L3,13 L1,7 Z " fill="#D05C4D" transform="translate(690,693)"/>
<path d="M0,0 L2,0 L5,6 L11,15 L11,17 L16,18 L17,25 L19,29 L15,27 L3,14 L-4,6 L-6,3 L-5,1 L-3,1 L-3,3 L1,3 Z " fill="#CB0A1B" transform="translate(187,218)"/>
<path d="M0,0 L4,1 L5,4 L10,6 L12,9 L23,15 L26,15 L26,17 L30,19 L37,22 L37,25 L41,25 L41,27 L44,28 L40,29 L33,25 L17,17 L9,11 L2,4 Z " fill="#DD0A0D" transform="translate(538,752)"/>
<path d="M0,0 L5,0 L15,9 L18,12 L18,14 L21,15 L21,22 L19,24 L16,15 L8,7 L4,4 L-1,5 L-7,12 L-9,15 L-11,23 L-13,24 L-13,14 L-6,5 Z " fill="#150B0E" transform="translate(181,642)"/>
<path d="M0,0 L5,1 L15,10 L19,16 L18,20 L15,21 L15,16 L8,10 L5,6 L-1,6 L-6,12 L-7,22 L-6,24 L-10,22 L-10,12 L-3,3 Z " fill="#C08D86" transform="translate(181,645)"/>
<path d="M0,0 L5,1 L14,11 L21,19 L29,26 L25,27 L19,22 L12,14 L5,7 L0,2 L0,57 L-1,57 L-2,1 Z " fill="#401D16" transform="translate(233,367)"/>
<path d="M0,0 Z M-1,1 Z M-2,2 Z M-4,3 L-2,3 L-3,6 L-13,12 L-27,22 L-34,27 L-45,33 L-51,38 L-54,38 L-54,40 L-57,41 L-60,44 L-62,44 L-62,41 L-41,27 L-28,19 L-17,12 L-6,4 Z " fill="#6F002D" transform="translate(646,557)"/>
<path d="M0,0 L4,2 L10,8 L10,10 L13,11 L13,13 L16,14 L21,19 L32,31 L37,36 L46,46 L54,54 L54,56 L50,54 L44,47 L39,42 L14,17 L7,9 L0,2 Z " fill="#C74B5B" transform="translate(249,631)"/>
<path d="M0,0 L5,0 L13,10 L22,24 L25,30 L25,40 L23,36 L20,28 L11,14 L4,6 L-1,6 L-1,1 Z " fill="#BE9287" transform="translate(315,791)"/>
<path d="M0,0 L4,2 L19,18 L26,25 L28,28 L28,31 L26,31 L26,29 L22,28 L13,19 L6,11 L3,8 L0,3 Z " fill="#BD9D93" transform="translate(243,380)"/>
<path d="M0,0 L10,2 L10,4 L12,5 L10,5 L9,8 L6,8 L5,6 L2,5 L2,7 L-10,8 L-16,9 L-17,14 L-18,14 L-18,6 L-14,2 L-8,1 L-7,2 L0,3 Z " fill="#DB0405" transform="translate(187,370)"/>
<path d="M0,0 L2,1 L-3,6 L-9,12 L-16,16 L-21,21 L-25,23 L-28,24 L-30,29 L-33,30 L-34,32 L-34,26 L-31,26 L-30,23 L-28,23 L-28,19 L-25,18 L-23,15 L-20,15 L-20,13 L-17,11 L-11,9 L-2,1 Z " fill="#C60121" transform="translate(578,602)"/>
<path d="M0,0 L4,4 L5,6 L4,31 L1,56 L-1,66 L-4,69 L-3,57 L-1,51 L1,34 L2,5 L0,5 Z " fill="#DA4F46" transform="translate(717,404)"/>
<path d="M0,0 L2,0 L1,64 L-5,59 L-4,57 L-1,57 L-2,36 Z " fill="#C12F56" transform="translate(362,686)"/>
<path d="M0,0 L5,1 L13,8 L14,10 L14,20 L13,20 L13,11 L3,8 L1,7 L1,10 L-6,10 L-11,9 L-13,8 L-4,3 Z " fill="#E11F11" transform="translate(186,363)"/>
<path d="M0,0 L6,1 L11,1 L12,5 L10,7 L13,7 L12,10 L8,13 L4,11 L1,10 L-4,10 L-4,2 L0,2 Z " fill="#9F0027" transform="translate(178,661)"/>
<path d="M0,0 L3,0 L3,3 L9,4 L14,9 L13,13 L11,16 L9,16 L8,18 L8,16 L5,16 L6,11 L-1,11 L-5,8 L-1,8 Z " fill="#B00221" transform="translate(183,652)"/>
<path d="M0,0 L4,2 L11,10 L10,13 L13,16 L12,18 L3,8 L2,44 L0,45 Z " fill="#C39587" transform="translate(233,369)"/>
<path d="M0,0 L2,3 L-11,14 L-20,20 L-39,33 L-41,33 L-40,30 L-29,22 L-23,18 L-14,11 L-2,2 Z " fill="#730029" transform="translate(660,535)"/>
<path d="M0,0 L5,1 L7,6 L8,7 L8,19 L2,29 L-3,34 L-9,35 L-9,34 L-17,33 L-17,32 L-7,31 L1,24 L4,17 L4,7 L0,2 Z " fill="#1C0810" transform="translate(198,364)"/>
<path d="M0,0 L2,0 L0,4 L-13,14 L-26,26 L-31,31 L-33,29 L-24,19 L-19,13 L-11,7 L-2,1 Z " fill="#14110B" transform="translate(480,541)"/>
<path d="M0,0 L2,2 L3,64 L1,64 L-1,59 Z " fill="#0F0B05" transform="translate(161,482)"/>
<path d="M0,0 L2,0 L3,3 L-8,10 L-22,19 L-30,25 L-38,32 L-41,35 L-44,34 L-39,29 L-37,29 L-35,25 L-29,20 L-27,20 L-27,18 L-20,14 L-10,8 L-9,6 L-3,3 Z " fill="#9F0018" transform="translate(617,566)"/>
<path d="M0,0 L9,2 L9,4 L14,4 L14,2 L10,2 L11,0 L22,3 L22,5 L27,5 L27,3 L32,3 L29,6 L10,7 L6,9 L-2,8 L-6,7 L-6,5 L0,5 L-1,2 Z " fill="#8D0045" transform="translate(787,864)"/>
<path d="M0,0 L5,5 L15,18 L20,23 L17,24 L13,20 L13,18 L6,16 L4,13 L-1,12 L-1,9 L-3,9 L-3,5 L1,4 Z " fill="#D25548" transform="translate(799,819)"/>
<path d="M0,0 L5,0 L0,5 L-13,19 L-19,28 L-22,28 L-23,33 L-24,33 L-23,26 L-17,17 L-8,7 L-6,5 L-3,6 L-1,2 Z " fill="#C78B77" transform="translate(254,560)"/>
<path d="M0,0 L21,0 L22,1 L30,2 L33,4 L33,6 L7,5 L7,3 L-4,3 Z " fill="#9C034C" transform="translate(797,870)"/>
<path d="M0,0 L5,4 L12,12 L10,14 L8,10 L4,10 L3,19 L2,78 L1,78 Z " fill="#D01301" transform="translate(235,376)"/>
<path d="M0,0 L4,1 L14,11 L19,18 L16,18 L11,16 L6,10 L3,8 L3,5 L-2,5 L-4,9 L-7,12 L-8,9 Z " fill="#BE9D91" transform="translate(256,555)"/>
<path d="M0,0 L5,4 L14,15 L21,24 L26,29 L26,31 L23,32 L11,18 L1,7 Z " fill="#12110E" transform="translate(723,721)"/>
<path d="M0,0 L4,5 L8,13 L17,24 L15,25 L15,27 L11,26 L11,23 L7,21 L1,10 L-2,4 L-2,1 Z " fill="#1A0911" transform="translate(231,739)"/>
<path d="M0,0 L2,0 L1,5 L1,14 L4,25 L12,35 L17,42 L12,40 L7,33 L2,28 L-2,21 L-3,19 L-3,3 L-1,4 Z " fill="#D06257" transform="translate(232,588)"/>
<path d="M0,0 L2,2 L-6,5 L-15,12 L-24,23 L-35,34 L-37,33 L-35,29 L-32,29 L-31,25 L-27,23 L-27,20 L-24,20 L-22,15 L-11,4 L-9,4 L-9,2 L-4,1 L0,2 Z " fill="#CB3245" transform="translate(234,538)"/>
<path d="M0,0 L5,2 L6,4 L9,5 L12,10 L14,11 L15,15 L20,19 L20,21 L23,22 L28,27 L28,29 L24,29 L24,27 L21,27 L17,22 L17,20 L14,19 L14,17 L12,17 L8,11 L0,3 Z " fill="#BB0014" transform="translate(160,192)"/>
<path d="M0,0 L5,5 L6,8 L10,10 L68,11 L68,12 L29,13 L28,14 L14,14 L7,11 L1,6 Z " fill="#3C0022" transform="translate(257,310)"/>
<path d="M0,0 L3,1 L6,5 L6,7 L8,7 L10,9 L13,9 L17,15 L19,18 L23,19 L24,24 L29,24 L29,26 L20,26 L9,13 L0,2 Z " fill="#B71135" transform="translate(242,290)"/>
<path d="M0,0 L1,0 L2,8 L2,20 L0,33 L-6,44 L-14,52 L-16,52 L-15,49 L-11,45 L-9,45 L-7,40 L-3,33 L-1,7 Z " fill="#B84D6D" transform="translate(340,824)"/>
<path d="M0,0 L5,5 L9,11 L11,12 L14,17 L16,18 L15,21 L8,19 L7,17 L0,16 L1,11 L3,11 L2,7 L0,6 Z " fill="#D35146" transform="translate(663,661)"/>
<path d="M0,0 L4,2 L11,9 L18,17 L25,24 L23,26 L18,22 L14,20 L7,12 L2,6 Z " fill="#BF9A8E" transform="translate(309,450)"/>
<path d="M0,0 L1,0 L1,54 L1,57 L-1,60 L-3,60 L-6,63 L-6,52 L-5,49 L0,50 Z " fill="#C7132F" transform="translate(365,519)"/>
<path d="M0,0 L2,0 L5,3 L9,5 L16,13 L12,14 L10,14 L9,11 L2,10 L2,13 L-1,14 L-2,3 L0,3 Z " fill="#CE1001" transform="translate(241,386)"/>
<path d="M0,0 L7,0 L9,6 L13,7 L16,14 L20,16 L20,21 L18,21 L18,17 L13,16 L13,14 L9,12 L2,9 Z " fill="#CD796A" transform="translate(769,284)"/>
<path d="M0,0 L1,0 L2,70 L4,80 L8,86 L7,89 L1,80 L-1,74 Z " fill="#DA5E46" transform="translate(235,384)"/>
<path d="M0,0 L2,1 L3,3 L-5,9 L-15,18 L-25,29 L-28,32 L-28,28 L-20,18 L-12,10 L-1,1 Z " fill="#BD978D" transform="translate(474,548)"/>
<path d="M0,0 L5,0 L0,5 L-3,8 L-3,16 L4,22 L10,26 L14,28 L7,28 L-2,21 L-7,15 L-8,13 L-8,6 L-5,2 L-5,4 Z " fill="#C37472" transform="translate(173,368)"/>
<path d="M0,0 L4,2 L9,8 L9,10 L14,10 L15,13 L14,15 L17,14 L19,12 L20,21 L28,29 L28,31 L24,29 L11,15 L2,4 Z " fill="#B1124E" transform="translate(515,743)"/>
<path d="M0,0 L2,0 L9,8 L9,10 L13,12 L22,22 L25,24 L32,24 L37,19 L39,18 L38,23 L33,27 L25,27 L19,23 L10,14 L3,6 L0,3 Z " fill="#BC3155" transform="translate(325,559)"/>
<path d="M0,0 L12,0 L13,3 L82,3 L82,4 L5,4 L0,2 Z " fill="#B40046" transform="translate(263,316)"/>
<path d="M0,0 L3,0 L3,2 L11,2 L28,8 L36,11 L36,14 L31,14 L31,12 L20,10 L13,8 L13,6 L9,6 L9,4 L0,4 L-1,1 Z " fill="#700031" transform="translate(778,855)"/>
<path d="M0,0 L1,0 L0,7 L-3,16 L-5,16 L-5,21 L-7,21 L-8,28 L-15,42 L-17,42 L-19,46 L-21,49 L-20,44 L-12,29 L-10,23 L-5,11 Z " fill="#2A0816" transform="translate(796,467)"/>
<path d="M0,0 L3,0 L9,10 L16,18 L16,21 L18,21 L23,27 L18,26 L12,21 L11,17 L7,15 L5,12 L5,9 L2,8 L0,3 Z " fill="#160B0F" transform="translate(163,547)"/>
<path d="M0,0 L7,6 L18,17 L23,22 L24,25 L28,27 L32,31 L32,33 L34,33 L35,36 L32,36 L21,25 L14,17 L0,3 Z " fill="#CC2639" transform="translate(264,494)"/>
<path d="M0,0 L4,2 L7,7 L14,18 L18,28 L22,39 L23,43 L23,51 L22,51 L20,43 L16,30 L8,14 L2,4 Z " fill="#C72944" transform="translate(694,354)"/>
<path d="M0,0 L4,2 L17,17 L20,22 L19,24 L16,23 L9,15 L3,9 L1,3 Z " fill="#BAA099" transform="translate(733,739)"/>
<path d="M0,0 L1,3 L-1,5 L2,6 L3,4 L3,10 L-1,13 L-10,13 L-11,11 L-13,10 L-11,7 L-6,5 L-1,2 Z " fill="#182624" transform="translate(196,672)"/>
<path d="M0,0 L2,1 L2,3 L7,5 L11,9 L11,11 L13,11 L16,18 L11,18 L12,13 L7,11 L7,13 L4,13 L3,8 L-5,7 L-5,5 L0,4 Z " fill="#16201C" transform="translate(589,835)"/>
<path d="M0,0 L2,0 L0,5 L-8,18 L-12,26 L-14,29 L-16,29 L-14,18 L-11,17 L-9,12 L-6,6 L-4,6 L-2,2 Z " fill="#150F0B" transform="translate(447,571)"/>
<path d="M0,0 L4,2 L13,13 L21,22 L20,25 L15,22 L10,16 L10,14 L7,13 L1,5 L-1,2 Z " fill="#B99F98" transform="translate(752,761)"/>
<path d="M0,0 L4,1 L1,1 L1,5 L4,5 L3,8 L0,8 L0,10 L-4,10 L-4,13 L-6,13 L-6,17 L-11,17 L-12,20 L-18,21 L-12,14 L-10,11 L-5,11 L-5,6 L-3,4 L0,4 Z " fill="#132220" transform="translate(231,543)"/>
<path d="M0,0 L102,0 L102,1 L0,1 Z " fill="#D26A58" transform="translate(149,156)"/>
<path d="M0,0 L5,5 L14,13 L21,21 L19,25 L15,28 L15,25 L17,25 L15,20 L11,15 L3,8 L-2,2 L0,2 Z " fill="#C48A7F" transform="translate(285,736)"/>
<path d="M0,0 L41,0 L40,2 L25,3 L18,2 L17,3 L1,3 Z " fill="#273C36" transform="translate(512,140)"/>
<path d="M0,0 L1,3 L-7,11 L-15,22 L-24,37 L-26,42 L-28,42 L-25,33 L-15,17 L-10,10 L-6,6 L-1,1 Z " fill="#CC153F" transform="translate(555,622)"/>
<path d="M0,0 L5,2 L5,5 L9,4 L17,16 L17,32 L15,32 L14,20 L11,14 L6,7 L1,2 Z " fill="#C6897C" transform="translate(347,654)"/>
<path d="M0,0 L7,1 L8,3 L12,4 L12,7 L-18,5 L-15,2 L-3,2 Z " fill="#20302C" transform="translate(593,142)"/>
<path d="M0,0 L4,2 L12,3 L11,5 L8,5 L8,7 L15,6 L13,7 L13,9 L1,9 L-4,8 L-4,5 L-2,4 L-2,1 Z " fill="#8D0045" transform="translate(772,858)"/>
<path d="M0,0 L4,2 L-3,10 L-5,13 L-5,36 L-7,34 L-8,29 L-8,11 L-2,2 Z " fill="#C4817B" transform="translate(303,818)"/>
<path d="M0,0 L5,4 L12,12 L19,19 L19,21 L15,19 L6,12 L-4,2 Z " fill="#C88371" transform="translate(218,518)"/>
<path d="M0,0 L6,0 L9,3 L9,5 L6,5 L6,2 L3,2 L2,10 L-2,10 L-2,13 L-6,13 L-7,17 L-6,7 Z " fill="#CE1314" transform="translate(180,650)"/>
<path d="M0,0 L2,0 L1,6 L-5,11 L-8,12 L-8,10 L-11,10 L-11,12 L-19,15 L-21,16 L-29,16 L-25,14 L-16,10 L-7,7 L-4,6 L-2,2 Z " fill="#320119" transform="translate(305,759)"/>
<path d="M0,0 L2,4 L8,11 L8,13 L14,15 L15,18 L13,20 L8,19 L5,16 L0,7 L0,5 L-2,5 Z M19,10 Z M18,11 Z M17,12 Z M16,13 Z M15,14 Z " fill="#200B10" transform="translate(170,663)"/>
<path d="M0,0 L4,5 L6,10 L13,18 L18,21 L26,21 L26,23 L17,24 L9,19 L5,15 L0,4 Z " fill="#B83F6E" transform="translate(297,855)"/>
<path d="M0,0 L4,2 L13,13 L18,19 L16,21 L8,14 L-1,3 L-2,1 Z " fill="#BAA098" transform="translate(708,710)"/>
<path d="M0,0 L2,0 L3,14 L3,26 L2,48 L1,48 L0,30 Z " fill="#160A0E" transform="translate(365,674)"/>
<path d="M0,0 L0,3 L-8,9 L-9,15 L-13,17 L-14,21 L-16,21 L-18,14 L-7,4 Z " fill="#C01C39" transform="translate(645,642)"/>
<path d="M0,0 L7,2 L19,14 L18,17 L13,15 L1,3 Z " fill="#C4917F" transform="translate(199,503)"/>
<path d="M0,0 L3,0 L4,11 L3,13 L7,14 L7,17 L1,18 L0,17 L-2,19 L-2,11 L0,11 L1,4 L-4,3 Z " fill="#8E0045" transform="translate(648,450)"/>
<path d="M0,0 L2,0 L3,9 L0,10 L0,17 L-2,17 L-3,26 L-4,31 L-6,31 L-6,34 L-8,33 Z M-9,34 Z " fill="#2B0714" transform="translate(804,433)"/>
<path d="M0,0 L4,2 L11,9 L18,17 L18,20 L13,19 L9,13 L1,5 Z " fill="#BAA098" transform="translate(836,859)"/>
<path d="M0,0 L3,0 L5,4 L7,5 L7,3 L13,3 L12,8 L10,8 L13,13 L20,21 L17,22 L4,7 L0,2 Z " fill="#AC105A" transform="translate(549,782)"/>
<path d="M0,0 L1,2 L3,2 L4,9 L4,28 L2,31 L1,28 L0,9 L-1,2 Z " fill="#35001F" transform="translate(637,348)"/>
<path d="M0,0 L3,0 L3,2 L1,2 L1,9 L-5,14 L-7,14 L-7,11 L-12,12 L-12,10 L-1,1 Z " fill="#D95347" transform="translate(669,531)"/>
<path d="M0,0 L1,0 L0,24 L-4,37 L-6,36 L-8,38 L-8,32 L-4,26 L-1,8 Z " fill="#BB0C26" transform="translate(719,444)"/>
<path d="M0,0 L5,5 L16,16 L18,18 L14,19 L5,12 L5,10 L2,10 L2,7 L0,6 Z " fill="#280119" transform="translate(610,853)"/>
<path d="M0,0 L2,0 L2,7 L-5,36 L-9,44 L-10,41 L-6,29 L-5,22 L-3,17 Z " fill="#B83451" transform="translate(802,430)"/>
<path d="M0,0 L2,2 L-3,7 L-11,14 L-15,12 L-20,7 L-20,5 L-13,5 L-11,8 L-7,6 L-3,5 L-3,3 Z " fill="#AF2149" transform="translate(195,665)"/>
<path d="M0,0 L2,0 L0,4 L-12,12 L-15,12 L-16,15 L-17,13 L-26,19 L-28,19 L-28,17 L-15,8 L-10,7 L-8,5 L-3,3 Z " fill="#E9331A" transform="translate(652,548)"/>
<path d="M0,0 L2,0 L2,29 L0,46 L-1,46 L-2,38 L-1,32 Z " fill="#D3685D" transform="translate(717,409)"/>
<path d="M0,0 L7,0 L7,2 L-1,8 L-8,13 L-16,14 L-16,12 L-13,10 L-9,10 L-9,8 L-5,8 L-5,6 L-3,6 L-3,4 L-1,4 Z " fill="#410022" transform="translate(644,636)"/>
<path d="M0,0 L5,1 L6,5 L2,9 L-4,8 L-8,5 L-8,2 L-1,1 Z " fill="#A10130" transform="translate(192,562)"/>
<path d="M0,0 L2,0 L6,5 L6,7 L10,8 L19,19 L26,26 L26,28 L28,29 L25,29 L18,22 L11,14 L1,4 Z " fill="#CD273A" transform="translate(298,530)"/>
<path d="M0,0 L2,1 L-2,5 L-4,5 L-6,10 L-11,14 L-18,18 L-22,20 L-19,15 L-6,4 L-3,1 Z " fill="#8F0321" transform="translate(589,474)"/>
<path d="M0,0 L3,0 L1,9 L-7,21 L-11,21 L-9,16 L-1,4 Z " fill="#C08A81" transform="translate(315,798)"/>
<path d="M0,0 L5,1 L14,11 L19,18 L15,19 L10,13 L10,10 L6,9 Z " fill="#BAA199" transform="translate(690,692)"/>
<path d="M0,0 L1,0 L1,41 L-1,40 L-1,1 Z " fill="#BF9A8E" transform="translate(234,413)"/>
<path d="M0,0 L2,4 L1,10 L1,40 L-1,38 L-2,33 L-2,8 Z " fill="#C57170" transform="translate(432,602)"/>
<path d="M0,0 L2,0 L4,4 L7,16 L6,47 L5,47 L4,18 L0,5 Z " fill="#BE545E" transform="translate(628,333)"/>
<path d="M0,0 L3,1 L-8,9 L-14,14 L-21,16 L-21,19 L-24,18 L-19,12 L-8,5 Z " fill="#A20411" transform="translate(559,498)"/>
<path d="M0,0 L4,5 L10,12 L21,20 L25,21 L25,23 L19,23 L11,16 L3,9 L-1,3 Z " fill="#C4485D" transform="translate(171,552)"/>
<path d="M0,0 L2,1 L2,31 L-1,32 L-1,49 L-2,49 L-2,27 Z " fill="#D81405" transform="translate(168,472)"/>
<path d="M0,0 L1,2 L-2,8 L-8,13 L-10,13 L-12,17 L-17,20 L-19,19 L-7,7 L-3,2 Z " fill="#900522" transform="translate(606,455)"/>
<path d="M0,0 L1,0 L1,6 L-5,11 L-9,15 L-13,18 L-17,17 L-8,8 L-6,8 L-4,4 L-1,3 Z " fill="#170C0E" transform="translate(202,661)"/>
<path d="M0,0 L1,0 L1,22 L3,32 L0,28 L-1,24 L-4,24 L-4,19 L-3,18 L-2,3 Z " fill="#192625" transform="translate(427,611)"/>
<path d="M0,0 L1,0 L1,34 L-2,31 L-3,33 L-6,32 L-5,29 L-3,29 L-2,23 Z " fill="#1A2824" transform="translate(160,490)"/>
<path d="M0,0 L4,1 L70,2 L70,3 L1,3 Z " fill="#D2032A" transform="translate(275,316)"/>
<path d="M0,0 L3,1 L6,6 L13,12 L20,20 L24,25 L21,25 L10,14 L3,6 L0,3 Z " fill="#B11159" transform="translate(472,695)"/>
<path d="M0,0 L3,1 L3,60 L1,61 L1,6 Z " fill="#C6797E" transform="translate(364,513)"/>
<path d="M0,0 L10,0 L17,2 L17,4 L23,4 L26,7 L23,8 L16,6 L10,4 L1,2 Z " fill="#E92912" transform="translate(495,180)"/>
<path d="M0,0 L4,1 L9,7 L9,11 L0,14 L-3,13 L1,9 L3,9 L1,3 Z " fill="#840330" transform="translate(293,750)"/>
<path d="M0,0 L7,2 L14,9 L18,13 L18,16 L14,14 L6,7 Z " fill="#C09185" transform="translate(267,722)"/>
<path d="M0,0 L5,5 L5,7 L8,8 L10,13 L7,13 L7,17 L3,18 L1,4 Z " fill="#D73A2E" transform="translate(651,647)"/>
<path d="M0,0 L3,0 L3,5 L8,5 L6,6 L6,8 L9,9 L-2,9 L-4,8 L-5,11 L-5,5 Z " fill="#253535" transform="translate(310,782)"/>
<path d="M0,0 L4,1 L10,7 L10,9 L14,11 L20,19 L17,19 L1,3 Z " fill="#CA9082" transform="translate(313,618)"/>
<path d="M0,0 L5,2 L8,3 L8,5 L13,7 L26,20 L27,23 L23,21 L16,13 L0,2 Z " fill="#C83249" transform="translate(668,331)"/>
<path d="M0,0 L7,6 L12,12 L10,13 L2,9 L-4,1 Z " fill="#BE988A" transform="translate(193,492)"/>
<path d="M0,0 L6,0 L14,3 L28,7 L28,8 L15,8 L15,6 L4,4 Z " fill="#72012F" transform="translate(815,868)"/>
<path d="M0,0 L2,0 L0,6 L-6,16 L-9,26 L-11,27 L-10,18 L-4,6 Z " fill="#BE958C" transform="translate(444,579)"/>
<path d="M0,0 L2,1 L4,4 L5,6 L3,6 L7,14 L6,16 L3,15 L2,13 L-1,12 L-2,4 L1,4 Z M3,16 Z " fill="#BB001A" transform="translate(585,490)"/>
<path d="M0,0 L2,0 L9,8 L14,14 L14,16 L16,16 L24,26 L23,28 L12,16 L3,5 L0,2 Z " fill="#CF2036" transform="translate(158,193)"/>
<path d="M0,0 L7,2 L13,10 L15,14 L14,17 L9,12 L9,10 L6,9 L3,4 Z " fill="#BF978E" transform="translate(721,729)"/>
<path d="M0,0 L5,2 L23,20 L22,23 L20,23 L17,18 L0,1 Z " fill="#9C0013" transform="translate(310,619)"/>
<path d="M0,0 L2,0 L2,3 L-2,7 L-9,19 L-15,27 L-16,24 L-15,21 L-12,19 L-9,13 L-3,4 Z " fill="#6D1746" transform="translate(773,514)"/>
<path d="M0,0 L2,3 L3,6 L3,35 L2,35 L0,13 L-1,5 L0,4 Z " fill="#3D0707" transform="translate(630,345)"/>
</svg>
